<svg xmlns="http://www.w3.org/2000/svg" xmlns:xlink="http://www.w3.org/1999/xlink" xmlns:fi="http://pattern.flaticon.com/" x="0" y="0" width="700" height="350" viewBox="0 0 700 350"><rect x="0px" y="0px" width="100%" height="100%" opacity="1" fill="#ffffff"/><defs><path d="M477.043,219.205L378.575,48.677c-7.974-13.802-22.683-22.292-38.607-22.292H143.041c-15.923,0-30.628,8.49-38.608,22.292  L5.971,219.205c-7.961,13.801-7.961,30.785,0,44.588l98.462,170.543c7.98,13.802,22.685,22.293,38.608,22.293h196.926  c15.925,0,30.634-8.491,38.607-22.293l98.469-170.543C485.003,249.99,485.003,233.006,477.043,219.205z" transform="matrix(0.04947145932239874 -0.009275898920561855 0.009275898920561855 0.04947145932239874 265.81164064909154 184.2924867562586)" id="L1_32" fill="#d5edea"/><path d="M478.63,219.042l-98.2,80.2c-5.9,4.8-8.5,12.6-6.7,20l29.7,121.3c4.4,19.7-10.6,36-27.4,36c-5,0-10.3-1.5-15.2-4.7   l-107.4-66c-6.4-3.9-14.4-3.9-20.8,0.1l-106.1,66c-4.9,3.3-10.2,4.7-15.3,4.7c-17.2,0-32.7-16.3-27.3-36l29.7-121.4   c1.8-7.4-0.8-15.1-6.6-19.9l-96.9-80.1c-19.9-17-8.5-49.7,17-51.1l125.5-9.1c7.5-0.5,14-5.3,16.8-12.2l48-116.6   c5-12.1,16-18.1,27-18.1s22,6,27,18.1l47.9,116.5c2.8,6.9,9.4,11.6,16.8,12.2l125.5,9.1   C487.23,169.442,498.53,202.042,478.63,219.042z" transform="matrix(0.032654314746601736 0.056402903611102694 -0.056402903611102694 0.032654314746601736 176.7686450121355 217.25723853909017)" id="L1_34" fill="#fffed1"/><path d="M14.554,0C6.561,0,0,6.562,0,14.552c0,7.996,6.561,14.555,14.554,14.555c7.996,0,14.553-6.559,14.553-14.555     C29.106,6.562,22.55,0,14.554,0z" transform="matrix(-0.09753198246356275 0.2925958970158094 -0.2925958970158094 -0.09753198246356275 90.54657254659458 280.0612915331361)" id="L1_37" fill="#ffebd9"/><path d="m408 184h-136c-4.417969 0-8-3.582031-8-8v-136c0-22.089844-17.910156-40-40-40s-40 17.910156-40 40v136c0 4.417969-3.582031 8-8 8h-136c-22.089844 0-40 17.910156-40 40s17.910156 40 40 40h136c4.417969 0 8 3.582031 8 8v136c0 22.089844 17.910156 40 40 40s40-17.910156 40-40v-136c0-4.417969 3.582031-8 8-8h136c22.089844 0 40-17.910156 40-40s-17.910156-40-40-40zm0 0" transform="matrix(0.05932905524969101 0 0 0.05932905524969101 221.7102906703949 328.7102906703949)" id="L1_40" fill="#e9d8f0"/><path d="M421.833,285.36c-2.573-9.801-8.233-17.179-16.991-22.128l-75.944-43.966l75.944-43.968   c8.758-4.949,14.421-12.322,16.991-22.126c2.566-9.803,1.379-19.082-3.572-27.836L399.99,93.932   c-4.948-8.757-12.319-14.419-22.127-16.989c-9.802-2.565-19.072-1.376-27.833,3.576l-75.944,43.677v-87.65   c0-9.899-3.621-18.464-10.855-25.697C256,3.616,247.433,0,237.537,0h-36.54c-9.9,0-18.464,3.619-25.697,10.849   c-7.232,7.232-10.85,15.798-10.85,25.697v87.65l-75.945-43.68c-8.757-4.952-18.036-6.145-27.837-3.576   c-9.803,2.573-17.179,8.232-22.128,16.989l-18.271,31.405c-4.952,8.754-6.14,18.033-3.571,27.836   c2.574,9.801,8.232,17.178,16.989,22.126l75.945,43.972l-75.945,43.966c-8.757,4.949-14.419,12.323-16.989,22.128   c-2.568,9.801-1.377,19.075,3.571,27.829l18.272,31.408c4.947,8.761,12.32,14.421,22.126,16.995   c9.805,2.562,19.08,1.375,27.837-3.58l75.945-43.681v87.655c0,9.891,3.617,18.466,10.85,25.694   c7.233,7.234,15.8,10.848,25.697,10.848h36.54c9.896,0,18.466-3.613,25.693-10.848c7.238-7.229,10.855-15.804,10.855-25.694   v-87.648l75.944,43.681c8.761,4.948,18.031,6.143,27.833,3.573c9.804-2.574,17.179-8.23,22.127-16.991l18.271-31.405   C423.212,304.438,424.4,295.161,421.833,285.36z" transform="matrix(0.029993073286408253 -0.006665127359034281 0.006665127359034281 0.029993073286408253 266.9639240113014 80.8567551257367)" id="L1_42" fill="#fffed1"/><path d="M412.861,78.976c3.404-6.636,2.831-14.159-0.15-20.404c0.84-7.106-1.02-14.321-7.746-19.855  c-6.262-5.151-12.523-10.305-18.781-15.457c-11.005-9.055-28.237-11.913-38.941,0c-48.619,54.103-99.461,105.856-152.167,155.725  c-39.185-36.605-78.846-72.713-118.223-108.868c-13.82-12.693-33.824-8.71-42.519,6.411c-12.665,6.286-22.931,14.481-31.42,28.468  c-4.042,6.664-3.727,15.076,0,21.764c25.421,45.578,74.557,85.651,114.957,122.529c-5.406,4.839-10.772,9.724-16.287,14.461  c-54.43,46.742-91.144,76.399-23.029,124.325c0.919,0.647,1.856,0.504,2.789,0.882c1.305,0.602,2.557,1.026,4.004,1.264  c0.45,0.017,0.87,0.093,1.313,0.058c1.402,0.114,2.774,0.471,4.195,0.192c36.621-7.18,70.677-35.878,101.576-67.48  c30.1,29.669,62.151,58.013,97.395,74.831c8.391,4.005,18.395,1.671,24.855-3.931c10.832,0.818,20.708-5.913,25.665-15.586  c0.734-0.454,1.207-0.713,2.002-1.21c15.748-9.838,17.187-29.431,5.534-42.936c-26.313-30.492-54.284-59.478-82.798-87.95  C316.426,196.043,380.533,141.939,412.861,78.976z" transform="matrix(0.03158869005289168 0.021059126515005983 -0.021059126515005983 0.03158869005289168 75.78230458606394 137.95889150271302)" id="L1_43" fill="#e9d8f0"/><path d="M408,0H51C22.95,0,0,22.95,0,51v357c0,28.05,22.95,51,51,51h357c28.05,0,51-22.95,51-51V51C459,22.95,436.05,0,408,0z" transform="matrix(0.021567527138730253 0.027729676661125687 -0.027729676661125687 0.021567527138730253 179.4142149470669 86.68629335961022)" id="L1_46" fill="#f7c3ca"/><path d="M679.503,349.728L151.09,9.181C119.742-7.703,83.832-5.951,83.832,54.688v670.58c0,55.408,38.525,64.17,67.258,45.506     l528.442-340.547C701.255,407.975,701.255,371.953,679.503,349.728z" transform="matrix(0.02816878276324537 0.012072335888173608 -0.012072335888173608 0.02816878276324537 40.85384010482219 14.264255031842456)" id="L1_47" fill="#ddf2d0"/></defs><g fi:class="KUsePattern"><pattern id="pattern_L1_32" width="350" height="350" patternUnits="userSpaceOnUse"><use xlink:href="#L1_32" x="-350" y="-350"/><use xlink:href="#L1_32" x="0" y="-350"/><use xlink:href="#L1_32" x="350" y="-350"/><use xlink:href="#L1_32" x="-350" y="0"/><use xlink:href="#L1_32" x="0" y="0"/><use xlink:href="#L1_32" x="350" y="0"/><use xlink:href="#L1_32" x="-350" y="350"/><use xlink:href="#L1_32" x="0" y="350"/><use xlink:href="#L1_32" x="350" y="350"/></pattern><rect x="0" y="0" width="100%" height="100%" fill="url(#pattern_L1_32)"/></g><g fi:class="KUsePattern"><pattern id="pattern_L1_34" width="350" height="350" patternUnits="userSpaceOnUse"><use xlink:href="#L1_34" x="-350" y="-350"/><use xlink:href="#L1_34" x="0" y="-350"/><use xlink:href="#L1_34" x="350" y="-350"/><use xlink:href="#L1_34" x="-350" y="0"/><use xlink:href="#L1_34" x="0" y="0"/><use xlink:href="#L1_34" x="350" y="0"/><use xlink:href="#L1_34" x="-350" y="350"/><use xlink:href="#L1_34" x="0" y="350"/><use xlink:href="#L1_34" x="350" y="350"/></pattern><rect x="0" y="0" width="100%" height="100%" fill="url(#pattern_L1_34)"/></g><g fi:class="KUsePattern"><pattern id="pattern_L1_37" width="350" height="350" patternUnits="userSpaceOnUse"><use xlink:href="#L1_37" x="-350" y="-350"/><use xlink:href="#L1_37" x="0" y="-350"/><use xlink:href="#L1_37" x="350" y="-350"/><use xlink:href="#L1_37" x="-350" y="0"/><use xlink:href="#L1_37" x="0" y="0"/><use xlink:href="#L1_37" x="350" y="0"/><use xlink:href="#L1_37" x="-350" y="350"/><use xlink:href="#L1_37" x="0" y="350"/><use xlink:href="#L1_37" x="350" y="350"/></pattern><rect x="0" y="0" width="100%" height="100%" fill="url(#pattern_L1_37)"/></g><g fi:class="KUsePattern"><pattern id="pattern_L1_40" width="350" height="350" patternUnits="userSpaceOnUse"><use xlink:href="#L1_40" x="-350" y="-350"/><use xlink:href="#L1_40" x="0" y="-350"/><use xlink:href="#L1_40" x="350" y="-350"/><use xlink:href="#L1_40" x="-350" y="0"/><use xlink:href="#L1_40" x="0" y="0"/><use xlink:href="#L1_40" x="350" y="0"/><use xlink:href="#L1_40" x="-350" y="350"/><use xlink:href="#L1_40" x="0" y="350"/><use xlink:href="#L1_40" x="350" y="350"/></pattern><rect x="0" y="0" width="100%" height="100%" fill="url(#pattern_L1_40)"/></g><g fi:class="KUsePattern"><pattern id="pattern_L1_42" width="350" height="350" patternUnits="userSpaceOnUse"><use xlink:href="#L1_42" x="-350" y="-350"/><use xlink:href="#L1_42" x="0" y="-350"/><use xlink:href="#L1_42" x="350" y="-350"/><use xlink:href="#L1_42" x="-350" y="0"/><use xlink:href="#L1_42" x="0" y="0"/><use xlink:href="#L1_42" x="350" y="0"/><use xlink:href="#L1_42" x="-350" y="350"/><use xlink:href="#L1_42" x="0" y="350"/><use xlink:href="#L1_42" x="350" y="350"/></pattern><rect x="0" y="0" width="100%" height="100%" fill="url(#pattern_L1_42)"/></g><g fi:class="KUsePattern"><pattern id="pattern_L1_43" width="350" height="350" patternUnits="userSpaceOnUse"><use xlink:href="#L1_43" x="-350" y="-350"/><use xlink:href="#L1_43" x="0" y="-350"/><use xlink:href="#L1_43" x="350" y="-350"/><use xlink:href="#L1_43" x="-350" y="0"/><use xlink:href="#L1_43" x="0" y="0"/><use xlink:href="#L1_43" x="350" y="0"/><use xlink:href="#L1_43" x="-350" y="350"/><use xlink:href="#L1_43" x="0" y="350"/><use xlink:href="#L1_43" x="350" y="350"/></pattern><rect x="0" y="0" width="100%" height="100%" fill="url(#pattern_L1_43)"/></g><g fi:class="KUsePattern"><pattern id="pattern_L1_46" width="350" height="350" patternUnits="userSpaceOnUse"><use xlink:href="#L1_46" x="-350" y="-350"/><use xlink:href="#L1_46" x="0" y="-350"/><use xlink:href="#L1_46" x="350" y="-350"/><use xlink:href="#L1_46" x="-350" y="0"/><use xlink:href="#L1_46" x="0" y="0"/><use xlink:href="#L1_46" x="350" y="0"/><use xlink:href="#L1_46" x="-350" y="350"/><use xlink:href="#L1_46" x="0" y="350"/><use xlink:href="#L1_46" x="350" y="350"/></pattern><rect x="0" y="0" width="100%" height="100%" fill="url(#pattern_L1_46)"/></g><g fi:class="KUsePattern"><pattern id="pattern_L1_47" width="350" height="350" patternUnits="userSpaceOnUse"><use xlink:href="#L1_47" x="-350" y="-350"/><use xlink:href="#L1_47" x="0" y="-350"/><use xlink:href="#L1_47" x="350" y="-350"/><use xlink:href="#L1_47" x="-350" y="0"/><use xlink:href="#L1_47" x="0" y="0"/><use xlink:href="#L1_47" x="350" y="0"/><use xlink:href="#L1_47" x="-350" y="350"/><use xlink:href="#L1_47" x="0" y="350"/><use xlink:href="#L1_47" x="350" y="350"/></pattern><rect x="0" y="0" width="100%" height="100%" fill="url(#pattern_L1_47)"/></g></svg>