<svg xmlns="http://www.w3.org/2000/svg" xmlns:xlink="http://www.w3.org/1999/xlink" xmlns:fi="http://pattern.flaticon.com/" x="0" y="0" width="700" height="350" viewBox="0 0 700 350"><rect x="0px" y="0px" width="100%" height="100%" opacity="1" fill="#ffffff"/><defs><path d="M30.025,60.001c-0.013,0-0.028,0-0.045-0.001c-0.334,0-0.667-0.006-0.999-0.018   c-0.552-0.018-0.984-0.479-0.966-1.032c0.019-0.551,0.48-0.979,1.032-0.966C29.363,57.994,29.681,58,30.001,58l0.11,0.006   c0.553,0,0.957,0.445,0.957,0.998C31.068,59.556,30.578,60.001,30.025,60.001z M34.058,59.719c-0.491,0-0.919-0.361-0.989-0.861   c-0.076-0.547,0.305-1.053,0.852-1.129c0.323-0.045,0.645-0.096,0.964-0.152c0.541-0.103,1.062,0.267,1.158,0.811   c0.097,0.543-0.267,1.063-0.811,1.158c-0.343,0.061-0.688,0.115-1.034,0.164C34.151,59.716,34.104,59.719,34.058,59.719z    M24.993,59.568c-0.057,0-0.114-0.005-0.172-0.015c-0.345-0.06-0.688-0.125-1.028-0.197c-0.54-0.114-0.887-0.645-0.772-1.185   s0.645-0.886,1.185-0.772c0.317,0.066,0.637,0.128,0.958,0.184c0.544,0.094,0.908,0.611,0.814,1.156   C25.893,59.226,25.47,59.568,24.993,59.568z M38.981,58.583c-0.422,0-0.813-0.269-0.951-0.69c-0.171-0.525,0.116-1.09,0.642-1.261   c0.311-0.101,0.619-0.207,0.925-0.318c0.517-0.189,1.093,0.079,1.281,0.598c0.189,0.519-0.078,1.093-0.598,1.281   c-0.327,0.119-0.657,0.233-0.989,0.342C39.187,58.567,39.084,58.583,38.981,58.583z M20.107,58.269   c-0.113,0-0.228-0.019-0.341-0.06c-0.33-0.119-0.657-0.245-0.981-0.377c-0.513-0.207-0.759-0.79-0.552-1.302   c0.207-0.513,0.79-0.76,1.302-0.552c0.303,0.122,0.606,0.238,0.913,0.35c0.519,0.188,0.787,0.762,0.6,1.281   C20.9,58.016,20.516,58.269,20.107,58.269z M43.631,56.605c-0.358,0-0.704-0.192-0.884-0.531c-0.26-0.487-0.074-1.093,0.414-1.352   c0.286-0.152,0.569-0.311,0.85-0.474c0.479-0.273,1.091-0.113,1.367,0.363c0.277,0.478,0.114,1.09-0.363,1.367   c-0.302,0.175-0.606,0.345-0.916,0.509C43.95,56.567,43.79,56.605,43.631,56.605z M15.522,56.134c-0.17,0-0.341-0.043-0.499-0.134   c-0.303-0.175-0.602-0.354-0.897-0.539c-0.469-0.293-0.611-0.91-0.319-1.378c0.293-0.469,0.911-0.61,1.378-0.319   c0.276,0.173,0.556,0.341,0.839,0.504c0.478,0.275,0.643,0.888,0.366,1.366C16.204,55.954,15.868,56.134,15.522,56.134z    M47.863,53.849c-0.297,0-0.591-0.132-0.788-0.384c-0.341-0.435-0.265-1.063,0.171-1.403c0.256-0.201,0.509-0.405,0.758-0.615   c0.423-0.355,1.053-0.301,1.409,0.122c0.355,0.423,0.301,1.054-0.122,1.409c-0.267,0.224-0.537,0.443-0.813,0.658   C48.295,53.779,48.079,53.849,47.863,53.849z M11.38,53.234c-0.227,0-0.454-0.076-0.642-0.233   c-0.268-0.225-0.532-0.454-0.791-0.688c-0.41-0.37-0.442-1.002-0.072-1.412c0.371-0.411,1.002-0.441,1.412-0.072   c0.241,0.217,0.486,0.431,0.736,0.64c0.423,0.354,0.479,0.985,0.124,1.409C11.95,53.112,11.667,53.234,11.38,53.234z    M51.554,50.402c-0.24,0-0.48-0.086-0.672-0.259c-0.409-0.371-0.44-1.004-0.069-1.413c0.218-0.24,0.432-0.485,0.64-0.734   c0.355-0.422,0.985-0.479,1.409-0.124c0.423,0.354,0.479,0.985,0.124,1.409c-0.226,0.269-0.455,0.533-0.69,0.793   C52.098,50.292,51.827,50.402,51.554,50.402z M7.805,49.665c-0.285,0-0.568-0.121-0.767-0.356   c-0.224-0.267-0.444-0.537-0.659-0.813c-0.341-0.435-0.265-1.063,0.171-1.403c0.434-0.341,1.063-0.265,1.403,0.171   c0.201,0.256,0.406,0.509,0.616,0.758c0.355,0.423,0.301,1.054-0.122,1.409C8.26,49.588,8.032,49.665,7.805,49.665z M54.597,46.368   c-0.182,0-0.365-0.05-0.531-0.153c-0.468-0.294-0.608-0.911-0.314-1.379c0.173-0.275,0.34-0.554,0.503-0.836   c0.276-0.479,0.886-0.642,1.366-0.366c0.478,0.275,0.643,0.888,0.366,1.366c-0.175,0.304-0.355,0.604-0.542,0.9   C55.255,46.202,54.93,46.368,54.597,46.368z M4.9,45.534c-0.345,0-0.681-0.179-0.866-0.498c-0.175-0.302-0.345-0.606-0.509-0.916   c-0.26-0.487-0.074-1.093,0.414-1.352c0.487-0.263,1.093-0.075,1.352,0.414c0.152,0.286,0.311,0.569,0.474,0.85   c0.277,0.478,0.114,1.09-0.363,1.367C5.243,45.49,5.07,45.534,4.9,45.534z M56.896,41.864c-0.125,0-0.252-0.023-0.375-0.073   c-0.513-0.207-0.759-0.79-0.552-1.302c0.122-0.303,0.239-0.607,0.352-0.915c0.189-0.519,0.765-0.785,1.282-0.597   c0.519,0.189,0.786,0.764,0.597,1.282c-0.12,0.329-0.245,0.655-0.377,0.979C57.666,41.629,57.291,41.864,56.896,41.864z    M2.756,40.961c-0.408,0-0.792-0.252-0.939-0.658c-0.119-0.326-0.232-0.654-0.342-0.986c-0.172-0.524,0.113-1.09,0.639-1.262   c0.525-0.171,1.089,0.113,1.262,0.639c0.102,0.311,0.209,0.619,0.32,0.926c0.189,0.519-0.078,1.093-0.598,1.281   C2.986,40.941,2.87,40.961,2.756,40.961z M58.376,37.026c-0.067,0-0.136-0.007-0.204-0.021c-0.541-0.112-0.889-0.643-0.776-1.183   c0.066-0.319,0.129-0.641,0.186-0.963c0.097-0.544,0.615-0.903,1.158-0.813c0.544,0.096,0.908,0.614,0.813,1.158   c-0.061,0.344-0.127,0.685-0.197,1.023C59.255,36.702,58.839,37.026,58.376,37.026z M1.443,36.082   c-0.477,0-0.897-0.341-0.983-0.826c-0.061-0.342-0.115-0.686-0.165-1.031c-0.078-0.547,0.302-1.054,0.849-1.132   c0.546-0.082,1.054,0.302,1.132,0.849c0.046,0.324,0.097,0.646,0.153,0.967c0.097,0.543-0.267,1.063-0.811,1.158   C1.559,36.077,1.501,36.082,1.443,36.082z M58.984,32.012c-0.012,0-0.024,0-0.036-0.001c-0.552-0.019-0.983-0.481-0.964-1.034   c0.011-0.324,0.017-0.649,0.017-0.977L58,29.894c0-0.553,0.447-1,1-1s1,0.447,1,1l0.001,0.079c0,0.378-0.006,0.727-0.019,1.074   C59.963,31.587,59.52,32.012,58.984,32.012z M1.001,31.024c-0.553,0-1-0.423-1-0.976V30c0-0.334,0.005-0.665,0.017-0.995   c0.018-0.553,0.521-1.015,1.032-0.966c0.553,0.019,0.984,0.48,0.966,1.032C2.005,29.38,2.001,29.689,2.001,30   C2.001,30.553,1.553,31.024,1.001,31.024z M58.707,26.861c-0.49,0-0.918-0.359-0.989-0.858c-0.046-0.323-0.098-0.645-0.155-0.964   c-0.098-0.543,0.264-1.063,0.808-1.161c0.539-0.098,1.063,0.264,1.161,0.808c0.062,0.343,0.117,0.688,0.167,1.034   c0.078,0.547-0.302,1.054-0.849,1.132C58.801,26.858,58.753,26.861,58.707,26.861z M1.428,26.016c-0.057,0-0.113-0.005-0.172-0.015   c-0.544-0.094-0.908-0.611-0.814-1.156c0.06-0.344,0.125-0.686,0.195-1.026c0.111-0.541,0.642-0.885,1.183-0.776   c0.54,0.112,0.888,0.642,0.776,1.183c-0.066,0.319-0.128,0.64-0.184,0.962C2.329,25.673,1.906,26.016,1.428,26.016z M57.558,21.942   c-0.421,0-0.812-0.267-0.95-0.688c-0.102-0.31-0.209-0.617-0.321-0.923c-0.19-0.519,0.075-1.093,0.594-1.283   c0.518-0.191,1.093,0.076,1.283,0.594c0.12,0.327,0.235,0.656,0.345,0.989c0.172,0.524-0.113,1.09-0.639,1.262   C57.766,21.927,57.662,21.942,57.558,21.942z M2.724,21.129c-0.113,0-0.228-0.019-0.341-0.06c-0.519-0.188-0.787-0.762-0.6-1.281   c0.119-0.329,0.244-0.656,0.375-0.98c0.205-0.513,0.79-0.76,1.301-0.555c0.513,0.206,0.761,0.788,0.555,1.301   c-0.121,0.303-0.238,0.608-0.35,0.916C3.517,20.876,3.133,21.129,2.724,21.129z M55.569,17.302c-0.355,0-0.7-0.19-0.881-0.525   c-0.155-0.287-0.314-0.572-0.479-0.854c-0.277-0.478-0.114-1.09,0.363-1.367c0.48-0.275,1.09-0.113,1.367,0.363   c0.174,0.3,0.343,0.603,0.508,0.909c0.263,0.486,0.081,1.093-0.405,1.354C55.892,17.264,55.729,17.302,55.569,17.302z    M4.854,16.544c-0.17,0-0.341-0.043-0.499-0.134c-0.478-0.275-0.643-0.888-0.366-1.366c0.175-0.302,0.354-0.602,0.537-0.896   c0.292-0.471,0.908-0.612,1.377-0.322c0.47,0.292,0.613,0.908,0.322,1.377c-0.172,0.277-0.341,0.558-0.504,0.842   C5.536,16.364,5.2,16.544,4.854,16.544z M52.802,13.078c-0.297,0-0.591-0.132-0.788-0.384c-0.2-0.256-0.405-0.507-0.615-0.755   c-0.356-0.422-0.304-1.053,0.118-1.409c0.422-0.359,1.055-0.304,1.409,0.118c0.226,0.268,0.446,0.538,0.662,0.813   c0.341,0.435,0.265,1.063-0.171,1.403C53.235,13.009,53.018,13.078,52.802,13.078z M7.749,12.399c-0.227,0-0.454-0.076-0.642-0.233   c-0.423-0.354-0.479-0.985-0.124-1.409c0.225-0.268,0.452-0.531,0.686-0.791C8.041,9.557,8.67,9.524,9.082,9.891   c0.41,0.369,0.444,1.002,0.075,1.413c-0.218,0.242-0.432,0.488-0.641,0.738C8.318,12.277,8.035,12.399,7.749,12.399z M49.344,9.395   c-0.238,0-0.477-0.084-0.667-0.255c-0.244-0.219-0.49-0.432-0.741-0.642c-0.423-0.354-0.479-0.985-0.124-1.409   c0.355-0.421,0.985-0.479,1.409-0.124c0.267,0.224,0.53,0.452,0.79,0.685c0.411,0.368,0.446,1.001,0.078,1.412   C49.892,9.282,49.619,9.395,49.344,9.395z M11.317,8.82c-0.285,0-0.568-0.121-0.767-0.356c-0.355-0.423-0.301-1.054,0.122-1.409   c0.267-0.224,0.536-0.443,0.81-0.658c0.437-0.343,1.064-0.265,1.404,0.168c0.342,0.435,0.266,1.063-0.168,1.404   c-0.256,0.201-0.51,0.407-0.759,0.617C11.772,8.743,11.543,8.82,11.317,8.82z M45.3,6.36c-0.18,0-0.362-0.049-0.526-0.15   c-0.277-0.172-0.558-0.341-0.842-0.504c-0.478-0.275-0.643-0.888-0.366-1.366c0.276-0.478,0.885-0.642,1.366-0.366   c0.302,0.175,0.602,0.354,0.896,0.537c0.47,0.292,0.613,0.908,0.322,1.377C45.961,6.193,45.634,6.36,45.3,6.36z M15.446,5.912   c-0.345,0-0.681-0.179-0.866-0.498c-0.277-0.478-0.114-1.09,0.363-1.367c0.301-0.174,0.604-0.344,0.911-0.508   c0.487-0.263,1.094-0.078,1.354,0.408c0.262,0.487,0.078,1.093-0.408,1.354c-0.287,0.154-0.571,0.313-0.853,0.477   C15.789,5.868,15.616,5.912,15.446,5.912z M40.793,4.075c-0.124,0-0.251-0.023-0.373-0.072c-0.303-0.121-0.608-0.237-0.916-0.349   c-0.519-0.188-0.787-0.762-0.6-1.281c0.188-0.519,0.759-0.79,1.281-0.6c0.329,0.119,0.656,0.243,0.98,0.374   c0.513,0.206,0.761,0.788,0.555,1.301C41.565,3.838,41.189,4.075,40.793,4.075z M20.013,3.766c-0.407,0-0.79-0.251-0.938-0.655   c-0.19-0.519,0.075-1.093,0.594-1.283c0.327-0.12,0.656-0.234,0.989-0.344c0.526-0.173,1.089,0.113,1.262,0.639   c0.172,0.524-0.113,1.09-0.639,1.262c-0.31,0.102-0.617,0.208-0.923,0.32C20.245,3.746,20.127,3.766,20.013,3.766z M35.952,2.61   c-0.066,0-0.134-0.007-0.201-0.021c-0.32-0.065-0.642-0.127-0.965-0.183c-0.544-0.094-0.908-0.611-0.814-1.156   c0.095-0.544,0.605-0.906,1.156-0.814c0.343,0.06,0.684,0.125,1.023,0.194c0.541,0.11,0.89,0.639,0.779,1.18   C36.834,2.284,36.418,2.61,35.952,2.61z M24.889,2.449c-0.477,0-0.897-0.341-0.983-0.826c-0.097-0.543,0.267-1.063,0.811-1.158   c0.342-0.061,0.686-0.116,1.031-0.166c0.547-0.08,1.054,0.302,1.132,0.849s-0.302,1.054-0.849,1.132   c-0.324,0.046-0.646,0.098-0.967,0.154C25.005,2.444,24.947,2.449,24.889,2.449z M30.935,2.015c-0.011,0-0.021,0-0.032-0.001   C30.603,2.005,30.302,2,30.001,2c-0.553,0-1.039-0.447-1.039-0.999c0-0.553,0.408-1,0.961-1v1l0.04-1   c0.353-0.004,0.684,0.004,1.003,0.015c0.553,0.017,0.985,0.479,0.968,1.03C31.917,1.588,31.472,2.015,30.935,2.015z" transform="matrix(0.23570422121191872 0.02357042247881754 -0.02357042247881754 0.23570422121191872 263.6358678379274 77.22124823152437)" fill="#7383bf" id="L1_3"/><path d="m256 0c-141.164062 0-256 114.835938-256 256s114.835938 256 256 256 256-114.835938 256-256-114.835938-256-256-256zm0 341.332031c-47.0625 0-85.332031-38.269531-85.332031-85.332031s38.269531-85.332031 85.332031-85.332031 85.332031 38.269531 85.332031 85.332031-38.269531 85.332031-85.332031 85.332031zm0 0" transform="matrix(0.011809947619142874 -0.01771492158595279 0.01771492158595279 0.011809947619142874 22.441633483495508 181.51167333550333)" id="L1_4"/><path d="M255,0C114.75,0,0,114.75,0,255s114.75,255,255,255s255-114.75,255-255S395.25,0,255,0z M255,459    c-112.2,0-204-91.8-204-204S142.8,51,255,51s204,91.8,204,204S367.2,459,255,459z" transform="matrix(-0.013864838719198325 0.033275612158150635 -0.033275612158150635 -0.013864838719198325 325.0208150854827 32.05025288482587)" id="L1_5"/><path d="M30,0C13.458,0,0,13.458,0,30s13.458,30,30,30s30-13.458,30-30S46.542,0,30,0z M30,58C14.561,58,2,45.439,2,30  S14.561,2,30,2s28,12.561,28,28S45.439,58,30,58z" transform="matrix(0.4242640600077181 0.1178511261632581 -0.1178511261632581 0.4242640600077181 111.8076119846662 227.7365444148707)" id="L1_6"/><path d="M409.133,109.203c-19.608-33.592-46.205-60.189-79.798-79.796C295.736,9.801,259.058,0,219.273,0   c-39.781,0-76.47,9.801-110.063,29.407c-33.595,19.604-60.192,46.201-79.8,79.796C9.801,142.8,0,179.489,0,219.267   c0,39.78,9.804,76.463,29.407,110.062c19.607,33.592,46.204,60.189,79.799,79.798c33.597,19.605,70.283,29.407,110.063,29.407   s76.47-9.802,110.065-29.407c33.593-19.602,60.189-46.206,79.795-79.798c19.603-33.596,29.403-70.284,29.403-110.062   C438.533,179.485,428.732,142.795,409.133,109.203z M353.742,297.208c-13.894,23.791-32.736,42.633-56.527,56.534   c-23.791,13.894-49.771,20.834-77.945,20.834c-28.167,0-54.149-6.94-77.943-20.834c-23.791-13.901-42.633-32.743-56.527-56.534   c-13.897-23.791-20.843-49.772-20.843-77.941c0-28.171,6.949-54.152,20.843-77.943c13.891-23.791,32.738-42.637,56.527-56.53   c23.791-13.895,49.772-20.84,77.943-20.84c28.173,0,54.154,6.945,77.945,20.84c23.791,13.894,42.634,32.739,56.527,56.53   c13.895,23.791,20.838,49.772,20.838,77.943C374.58,247.436,367.637,273.417,353.742,297.208z" transform="matrix(0.012915192833684776 0.009686394022712569 -0.009686394022712569 0.012915192833684776 182.25643137926954 184.01379079732143)" id="L1_7"/><path d="M9.9 0.2l-0.2 1c3 0.8 5.3 3.5 5.3 6.8 0 3.9-3.1 7-7 7s-7-3.1-7-7c0-3.3 2.3-6 5.3-6.8l-0.2-1c-3.5 0.9-6.1 4.1-6.1 7.8 0 4.4 3.6 8 8 8s8-3.6 8-8c0-3.7-2.6-6.9-6.1-7.8z" transform="matrix(0.7115399519999905 0.533654930803499 -0.533654930803499 0.7115399519999905 327.63028573065486 220.34228496899868)" fill="#444444" id="L1_9"/><path d="M166.926,155.377c8.633-10.416,14.741-22.853,17.662-35.965l14.641,3.262c-3.435,15.42-10.612,30.039-20.754,42.275  L166.926,155.377z M162.129,20.796c-12.603-9.675-27.482-16.296-43.03-19.146l-2.705,14.754c13.219,2.424,25.876,8.057,36.6,16.291  L162.129,20.796z M4.476,71.48l14.351,4.365C22.735,62.992,29.764,51.047,39.153,41.3L28.35,30.894  C17.326,42.338,9.07,56.373,4.476,71.48z M33.814,175.861c11.849,10.591,26.185,18.314,41.459,22.332l3.817-14.506  c-12.992-3.419-25.192-9.992-35.281-19.01L33.814,175.861z M12.953,149.881l13.083-7.338c-6.587-11.744-10.334-25.08-10.835-38.564  l-14.989,0.559C0.801,120.389,5.207,136.068,12.953,149.881z M61.936,24.369C74.073,18.152,87.179,15,100.888,15V0  C85.005,0,69.171,3.811,55.097,11.019L61.936,24.369z M200.998,89.399c-1.771-15.729-7.349-31.032-16.13-44.254l-12.495,8.299  c7.469,11.247,12.213,24.261,13.72,37.635L200.998,89.399z M108.462,201.21c15.8-1.181,31.303-6.177,44.832-14.448l-7.824-12.797  c-11.506,7.033-24.689,11.282-38.125,12.286L108.462,201.21z" transform="matrix(0.091515253606336 0.06335671108517378 -0.06335671108517378 0.091515253606336 125.16045612868703 60.39740546615737)" id="L1_11"/><g transform="matrix(-0.00746944456169297 0.019918518500587346 -0.019918518500587346 -0.00746944456169297 56.741048915963866 54.42726304681425)" id="L1_12"><path d="M529.117,317.082c-16.576,0-31.23,10.682-36.342,26.454c-27.636,85.372-107.769,147.314-202.232,147.314     c-117.274,0-212.688-95.424-212.688-212.707c0-94.075,61.43-173.951,146.278-201.901c16.383-5.398,27.483-20.716,27.483-37.985     c0-12.232-5.853-23.731-15.737-30.924c-9.884-7.204-22.62-9.237-34.251-5.492C84.793,39.468,0.001,148.976,0.001,278.147     c0,160.218,130.332,290.558,290.541,290.558c128.654,0,237.793-84.126,275.828-200.219c3.912-11.938,1.861-25.024-5.514-35.2     C553.5,323.116,541.699,317.082,529.117,317.082z"/><path d="M355.888,75.905c64.584,20.908,115.691,71.902,136.752,136.419c5.246,16.061,20.205,26.906,37.103,26.906h0.801     c12.201,0,23.666-5.834,30.848-15.69c7.168-9.855,9.218-22.562,5.476-34.174c-28.49-88.591-98.416-158.661-186.933-187.36     c-11.729-3.8-24.596-1.758-34.573,5.492c-9.979,7.26-15.89,18.856-15.89,31.198v0.847     C329.468,56.099,340.148,70.801,355.888,75.905z"/></g><path d="M113.158,0.402c31.367,2.761,59.489,19.399,77.157,45.646l-12.443,8.375c-15.127-22.474-39.194-36.718-66.029-39.08  L113.158,0.402z M185.456,68.153C190.462,79.453,193,91.514,193,104s-2.538,24.547-7.544,35.847l13.715,6.074  C205.03,132.696,208,118.592,208,104s-2.97-28.696-8.829-41.921L185.456,68.153z M17.685,46.049l12.443,8.375  c15.127-22.474,39.194-36.718,66.029-39.08L94.842,0.402C63.476,3.163,35.353,19.801,17.685,46.049z M111.842,192.656l1.315,14.941  c31.367-2.761,59.489-19.398,77.157-45.646l-12.443-8.375C162.744,176.05,138.677,190.294,111.842,192.656z M15,104  c0-12.486,2.538-24.547,7.544-35.847L8.829,62.079C2.97,75.304,0,89.408,0,104s2.97,28.696,8.829,41.921l13.715-6.074  C17.538,128.547,15,116.486,15,104z M30.129,153.576l-12.443,8.375c17.668,26.248,45.79,42.886,77.157,45.646l1.315-14.941  C69.323,190.294,45.256,176.05,30.129,153.576z" transform="matrix(0.04768591176789563 0.027249091753550145 -0.027249091753550145 0.04768591176789563 15.874556759080765 290.2066391763488)" id="L1_13"/><path d="M30.694,59.94c-1.078,0-1.967-0.857-1.998-1.941c-0.032-1.104,0.837-2.025,1.94-2.058c0.314-0.009,0.628-0.022,0.939-0.042  c1.12-0.084,2.051,0.771,2.119,1.873c0.068,1.103-0.771,2.052-1.873,2.119c-0.354,0.021-0.711,0.037-1.068,0.048  C30.733,59.94,30.714,59.94,30.694,59.94z M24.696,59.468c-0.121,0-0.244-0.011-0.368-0.034c-0.356-0.066-0.71-0.139-1.062-0.219  c-1.077-0.245-1.752-1.317-1.507-2.394c0.245-1.077,1.319-1.751,2.394-1.507c0.301,0.068,0.604,0.131,0.907,0.188  c1.086,0.202,1.803,1.246,1.6,2.332C26.481,58.796,25.64,59.468,24.696,59.468z M37.63,58.88c-0.872,0-1.673-0.574-1.923-1.455  c-0.302-1.063,0.314-2.168,1.378-2.47c0.299-0.085,0.595-0.176,0.89-0.271c1.054-0.339,2.179,0.233,2.521,1.284  c0.341,1.05-0.233,2.179-1.284,2.521c-0.342,0.111-0.687,0.216-1.034,0.314C37.995,58.855,37.81,58.88,37.63,58.88z M18.013,57.318  c-0.284,0-0.572-0.061-0.847-0.188c-0.327-0.153-0.651-0.312-0.972-0.477c-0.982-0.506-1.369-1.712-0.863-2.693  c0.505-0.981,1.711-1.368,2.693-0.863c0.275,0.142,0.555,0.278,0.837,0.41c1,0.468,1.432,1.659,0.964,2.659  C19.486,56.892,18.765,57.318,18.013,57.318z M44.087,56.122c-0.688,0-1.356-0.354-1.729-0.991  c-0.558-0.953-0.236-2.178,0.718-2.735c0.267-0.156,0.53-0.318,0.791-0.484c0.934-0.594,2.168-0.318,2.762,0.613  c0.593,0.932,0.318,2.168-0.613,2.762c-0.304,0.193-0.61,0.381-0.922,0.563C44.777,56.034,44.429,56.122,44.087,56.122z   M12.08,53.564c-0.449,0-0.9-0.15-1.273-0.458c-0.277-0.229-0.551-0.464-0.819-0.703c-0.825-0.734-0.898-1.998-0.163-2.823  c0.732-0.824,1.998-0.899,2.823-0.163c0.231,0.206,0.468,0.407,0.708,0.605c0.852,0.704,0.971,1.965,0.268,2.816  C13.227,53.317,12.655,53.564,12.08,53.564z M49.644,51.843c-0.514,0-1.026-0.196-1.417-0.589c-0.779-0.782-0.777-2.049,0.006-2.828  c0.222-0.221,0.439-0.445,0.654-0.674c0.757-0.804,2.021-0.843,2.827-0.087c0.805,0.756,0.844,2.022,0.087,2.827  c-0.244,0.26-0.493,0.516-0.746,0.768C50.666,51.649,50.155,51.843,49.644,51.843z M7.271,48.456c-0.617,0-1.227-0.284-1.618-0.821  c-0.211-0.29-0.418-0.585-0.618-0.881c-0.617-0.916-0.376-2.159,0.539-2.777c0.917-0.618,2.159-0.376,2.777,0.539  c0.173,0.257,0.351,0.511,0.534,0.762c0.65,0.893,0.455,2.144-0.438,2.795C8.093,48.331,7.679,48.456,7.271,48.456z M53.967,46.316  c-0.349,0-0.701-0.091-1.022-0.282c-0.949-0.566-1.259-1.794-0.693-2.742c0.16-0.269,0.315-0.539,0.466-0.813  c0.531-0.968,1.747-1.322,2.717-0.789c0.968,0.532,1.321,1.748,0.789,2.717c-0.174,0.315-0.353,0.627-0.536,0.935  C55.311,45.968,54.648,46.316,53.967,46.316z M3.882,42.312c-0.797,0-1.549-0.479-1.86-1.265c-0.132-0.332-0.259-0.669-0.379-1.008  c-0.369-1.041,0.175-2.185,1.216-2.554c1.039-0.369,2.184,0.174,2.554,1.216c0.104,0.294,0.214,0.584,0.328,0.873  c0.407,1.026-0.096,2.188-1.123,2.596C4.376,42.266,4.127,42.312,3.882,42.312z M56.779,39.885c-0.186,0-0.374-0.026-0.562-0.081  c-1.06-0.31-1.669-1.42-1.359-2.48c0.087-0.299,0.17-0.601,0.248-0.904c0.272-1.068,1.357-1.721,2.433-1.442  c1.069,0.272,1.716,1.362,1.442,2.433c-0.088,0.347-0.184,0.691-0.283,1.035C58.443,39.318,57.645,39.885,56.779,39.885z   M2.133,35.515c-0.992,0-1.853-0.738-1.981-1.748c-0.045-0.357-0.084-0.716-0.115-1.078c-0.097-1.101,0.718-2.07,1.818-2.166  c1.122-0.112,2.07,0.719,2.166,1.818c0.027,0.31,0.061,0.617,0.1,0.922c0.139,1.096-0.637,2.097-1.732,2.236  C2.302,35.51,2.217,35.515,2.133,35.515z M57.895,32.956c-0.023,0-0.047,0-0.071-0.001c-1.104-0.039-1.967-0.965-1.929-2.069  c0.011-0.311,0.017-0.622,0.017-0.935v-0.113c0-1.104,0.896-2,2-2s2,0.896,2,2v0.113c0,0.359-0.006,0.718-0.019,1.075  C59.855,32.106,58.968,32.956,57.895,32.956z M2.125,28.497c-0.082,0-0.164-0.005-0.247-0.015c-1.096-0.135-1.876-1.133-1.741-2.229  c0.044-0.356,0.094-0.711,0.149-1.062c0.172-1.092,1.198-1.837,2.286-1.665c1.092,0.172,1.837,1.195,1.665,2.286  c-0.048,0.308-0.092,0.617-0.13,0.929C3.982,27.754,3.12,28.497,2.125,28.497z M57.249,25.855c-0.918,0-1.745-0.636-1.951-1.57  c-0.067-0.303-0.14-0.605-0.217-0.904c-0.278-1.069,0.363-2.161,1.433-2.438c1.072-0.28,2.161,0.364,2.438,1.433  c0.091,0.348,0.175,0.697,0.252,1.051c0.237,1.078-0.444,2.146-1.523,2.383C57.536,25.84,57.391,25.855,57.249,25.855z M3.84,21.693  c-0.242,0-0.49-0.045-0.729-0.14c-1.028-0.403-1.535-1.563-1.131-2.592c0.132-0.337,0.27-0.671,0.413-1  c0.441-1.012,1.616-1.476,2.633-1.033c1.013,0.441,1.475,1.62,1.033,2.633c-0.124,0.284-0.242,0.571-0.356,0.861  C5.393,21.211,4.638,21.693,3.84,21.693z M54.887,19.249c-0.732,0-1.438-0.402-1.788-1.101c-0.139-0.275-0.283-0.546-0.433-0.814  c-0.536-0.966-0.188-2.184,0.778-2.72c0.966-0.534,2.183-0.187,2.72,0.778c0.175,0.315,0.345,0.635,0.507,0.957  c0.497,0.987,0.1,2.189-0.887,2.686C55.496,19.18,55.189,19.249,54.887,19.249z M7.206,15.532c-0.406,0-0.815-0.123-1.17-0.379  C5.14,14.505,4.94,13.255,5.587,12.36c0.211-0.292,0.428-0.58,0.65-0.865c0.682-0.871,1.938-1.022,2.808-0.343  c0.87,0.681,1.023,1.938,0.343,2.808c-0.191,0.245-0.377,0.493-0.559,0.744C8.437,15.245,7.826,15.532,7.206,15.532z M50.95,13.445  c-0.557,0-1.109-0.23-1.505-0.682c-0.205-0.233-0.413-0.461-0.625-0.686c-0.761-0.802-0.727-2.067,0.075-2.827  s2.068-0.727,2.827,0.075c0.249,0.262,0.492,0.528,0.73,0.801c0.729,0.831,0.645,2.095-0.186,2.822  C51.887,13.282,51.418,13.445,50.95,13.445z M12.002,10.404c-0.574,0-1.145-0.246-1.54-0.723C9.757,8.831,9.874,7.57,10.723,6.865  c0.275-0.229,0.555-0.451,0.837-0.67c0.871-0.676,2.127-0.518,2.806,0.356c0.677,0.873,0.518,2.129-0.356,2.806  c-0.247,0.191-0.491,0.387-0.731,0.586C12.904,10.253,12.452,10.404,12.002,10.404z M45.689,8.796c-0.389,0-0.781-0.113-1.126-0.349  c-0.257-0.175-0.516-0.345-0.778-0.51c-0.936-0.588-1.217-1.823-0.629-2.758c0.588-0.936,1.825-1.217,2.758-0.629  c0.306,0.192,0.607,0.39,0.905,0.594c0.912,0.623,1.146,1.867,0.523,2.779C46.956,8.492,46.328,8.796,45.689,8.796z M17.915,6.631  c-0.749,0-1.468-0.423-1.81-1.146c-0.472-0.999-0.045-2.191,0.954-2.663c0.323-0.152,0.649-0.3,0.978-0.44  c1.015-0.44,2.191,0.032,2.627,1.047c0.437,1.015-0.032,2.191-1.047,2.627c-0.285,0.123-0.568,0.251-0.849,0.384  C18.492,6.57,18.201,6.631,17.915,6.631z M39.439,5.605c-0.225,0-0.453-0.038-0.676-0.119c-0.293-0.104-0.589-0.205-0.888-0.301  c-1.052-0.336-1.633-1.461-1.297-2.514c0.336-1.052,1.459-1.634,2.514-1.297c0.344,0.109,0.685,0.226,1.022,0.348  c1.04,0.373,1.58,1.519,1.206,2.558C41.028,5.096,40.26,5.605,39.439,5.605z M24.58,4.454c-0.941,0-1.78-0.667-1.963-1.626  c-0.206-1.085,0.506-2.132,1.591-2.339c0.352-0.066,0.706-0.129,1.062-0.183c1.093-0.164,2.112,0.582,2.279,1.674  s-0.582,2.112-1.674,2.279c-0.309,0.048-0.614,0.101-0.919,0.159C24.83,4.442,24.704,4.454,24.58,4.454z M32.59,4.076  c-0.063,0-0.126-0.003-0.189-0.009c-0.309-0.029-0.618-0.053-0.931-0.07c-1.103-0.064-1.944-1.011-1.881-2.113  c0.064-1.103,1.004-1.936,2.113-1.881c0.359,0.021,0.718,0.049,1.073,0.082c1.1,0.104,1.907,1.079,1.804,2.179  C34.481,3.299,33.61,4.076,32.59,4.076z" transform="matrix(0.28763664021711316 0.23969721223883983 -0.23969721223883983 0.28763664021711316 249.1153163865695 331.97318086447797)" id="L1_15"/><path d="M252.036,0C113.057,0,0.001,113.056,0.001,252.036s113.056,252.037,252.036,252.037s252.036-113.057,252.036-252.037   S391.016,0,252.036,0z M26.657,188.927l162.27-162.27c11.945-3.349,24.275-5.764,36.904-7.178L19.479,225.831   C20.893,213.202,23.307,200.872,26.657,188.927z M18.012,252.756L234.035,36.733v29.759L19.767,280.76   C18.638,271.577,18.041,262.232,18.012,252.756z M23.497,302.489L234.035,91.951v29.755L29.929,325.812   C27.394,318.203,25.247,310.42,23.497,302.489z M234.035,147.164v29.742l-187.33,187.33c-3.557-6.483-6.812-13.153-9.754-19.988   L234.035,147.164z M234.035,202.365v29.753L68.757,397.396c-4.416-5.556-8.58-11.319-12.486-17.268L234.035,202.365z    M234.035,342.524L126.864,449.695c-6.017-3.824-11.845-7.92-17.474-12.261l124.645-124.645V342.524z M234.035,367.982v29.759   l-70.807,70.807c-6.925-2.851-13.682-6.024-20.257-9.502L234.035,367.982z M234.035,423.2v29.753l-28.475,28.475   c-8.041-1.627-15.934-3.667-23.655-6.097L234.035,423.2z M234.035,478.411v6.973c-2.139-0.164-4.269-0.361-6.391-0.582   L234.035,478.411z M147.366,42.759L42.759,147.366C65.42,102.244,102.243,65.42,147.366,42.759z M80.526,411.085l153.509-153.509   v29.754L95.505,425.86C90.294,421.161,85.299,416.228,80.526,411.085z M252.038,486.07V18.003   c129.043,0,234.033,104.99,234.033,234.033S381.08,486.07,252.038,486.07z" transform="matrix(0.022447855990640208 0.042089730085790485 -0.042089730085790485 0.022447855990640208 111.9454545702164 329.73216256211975)" id="L1_16"/><g transform="matrix(0.027621384591881227 0.013810692811404655 -0.013810692811404655 0.027621384591881227 176.46445590107086 316.39334359726263)" id="L1_18"><path d="M256,0c-11.422,0-20.682,9.26-20.682,20.682v94.127c0,11.422,9.26,20.682,20.682,20.682    c11.423,0,20.682-9.26,20.682-20.682V20.682C276.682,9.26,267.423,0,256,0z"/><path d="M256,376.508c-11.422,0-20.682,9.259-20.682,20.682v94.127c0,11.423,9.26,20.682,20.682,20.682    c11.423,0,20.682-9.259,20.682-20.682v-94.127C276.682,385.768,267.423,376.508,256,376.508z"/><path d="M170.849,141.602l-66.595-66.595c-8.076-8.077-21.172-8.077-29.248,0c-8.077,8.076-8.077,21.171,0,29.248l66.595,66.595    c4.038,4.038,9.332,6.058,14.625,6.058c5.293,0,10.587-2.019,14.624-6.058C178.926,162.774,178.926,149.679,170.849,141.602z"/><path d="M436.994,407.745l-66.595-66.595c-8.077-8.077-21.172-8.077-29.249,0c-8.076,8.077-8.076,21.172,0,29.249l66.595,66.595    c4.038,4.039,9.332,6.058,14.625,6.058c5.293,0,10.587-2.019,14.625-6.058C445.07,428.917,445.07,415.822,436.994,407.745z"/><path d="M114.809,235.318H20.682C9.26,235.318,0,244.578,0,256c0,11.423,9.26,20.682,20.682,20.682h94.127    c11.422,0,20.682-9.259,20.682-20.682C135.492,244.578,126.231,235.318,114.809,235.318z"/><path d="M491.318,235.318h-94.127c-11.423,0-20.682,9.26-20.682,20.682c0,11.423,9.259,20.682,20.682,20.682h94.127    c11.423,0,20.682-9.259,20.682-20.682C512,244.578,502.741,235.318,491.318,235.318z"/><path d="M170.849,341.15c-8.076-8.077-21.172-8.077-29.248,0l-66.595,66.595c-8.077,8.077-8.077,21.172,0,29.249    c4.038,4.039,9.332,6.058,14.625,6.058c5.293,0,10.586-2.019,14.624-6.058l66.595-66.595    C178.926,362.322,178.926,349.227,170.849,341.15z"/><path d="M436.994,75.007c-8.077-8.077-21.172-8.077-29.249,0l-66.595,66.595c-8.076,8.076-8.076,21.171,0,29.248    c4.038,4.038,9.332,6.058,14.625,6.058c5.293,0,10.586-2.019,14.625-6.058l66.595-66.595    C445.07,96.179,445.07,83.084,436.994,75.007z"/></g><path d="M612,306C612,137.004,474.995,0,306,0C137.004,0,0,137.004,0,306c0,168.995,137.004,306,306,306   C474.995,612,612,474.995,612,306z M306,27.818c153.64,0,278.182,124.542,278.182,278.182c0,71.826-27.206,137.283-71.882,186.632   L119.368,99.7C168.717,55.024,234.173,27.818,306,27.818z M27.818,306c0-71.827,27.206-137.283,71.882-186.632L492.632,512.3   C443.283,556.976,377.826,584.182,306,584.182C152.36,584.182,27.818,459.64,27.818,306z" transform="matrix(0.02032398327253379 0.003387330555295614 -0.003387330555295614 0.02032398327253379 87.81738476026344 127.74433846042253)" id="L1_19"/><g transform="matrix(0.038669902219092854 0.013810679207564677 -0.013810679207564677 0.038669902219092854 220.63603890904878 259.56497115477566)" id="L1_20"><path d="M83.697,106.959c7.148-8.276,14.971-16.099,23.262-23.262c6.27-5.42,6.958-14.897,1.538-21.167   c-5.435-6.284-14.897-6.929-21.167-1.538C77.955,69.108,69.093,77.97,60.992,87.33c-5.42,6.27-4.717,15.747,1.538,21.167   C68.802,113.896,78.252,113.235,83.697,106.959z"/><path d="M181.996,38.213c10.342-3.604,21.035-6.46,31.787-8.496c8.145-1.538,13.491-9.375,11.953-17.52   c-1.523-8.145-9.302-13.418-17.52-11.953c-12.202,2.3-24.346,5.552-36.094,9.639c-7.822,2.725-11.953,11.279-9.229,19.102   C165.633,36.845,174.231,40.917,181.996,38.213z"/><path d="M298.217,29.717c10.723,2.036,21.416,4.893,31.772,8.496c7.765,2.704,16.363-1.368,19.102-9.229   c2.725-7.822-1.406-16.377-9.229-19.102c-11.763-4.102-23.892-7.339-36.079-9.639c-8.13-1.465-15.967,3.809-17.52,11.953   C284.726,20.342,290.072,28.179,298.217,29.717z"/><path d="M428.303,106.959c5.445,6.276,14.896,6.937,21.167,1.538c6.255-5.42,6.958-14.897,1.538-21.167   c-8.13-9.39-16.992-18.252-26.367-26.338c-6.284-5.42-15.762-4.731-21.152,1.553c-5.42,6.27-4.717,15.747,1.553,21.152   C413.317,90.831,421.14,98.653,428.303,106.959z"/><path d="M482.264,213.783c1.523,8.06,9.284,13.497,17.52,11.953c8.145-1.538,13.491-9.375,11.953-17.52   c-2.3-12.188-5.537-24.316-9.639-36.079c-2.725-7.822-11.25-11.982-19.102-9.229c-7.822,2.725-11.953,11.279-9.229,19.102   C477.371,192.367,480.228,203.061,482.264,213.783z"/><path d="M499.783,286.264c-8.101-1.421-15.981,3.823-17.52,11.953c-2.036,10.723-4.893,21.416-8.496,31.772   c-2.725,7.822,1.406,16.377,9.229,19.102c7.765,2.704,16.363-1.368,19.102-9.229c4.102-11.763,7.339-23.892,9.639-36.079   C513.274,295.639,507.928,287.802,499.783,286.264z"/><path d="M428.317,405.026c-7.163,8.291-14.985,16.113-23.276,23.276c-6.27,5.42-6.958,14.897-1.538,21.167   c5.445,6.276,14.896,6.937,21.167,1.538c9.375-8.115,18.237-16.978,26.353-26.353c5.42-6.27,4.731-15.747-1.538-21.167   C443.215,398.098,433.767,398.757,428.317,405.026z"/><path d="M329.989,473.768c-10.327,3.604-21.021,6.46-31.772,8.496c-8.145,1.538-13.491,9.375-11.953,17.52   c1.523,8.06,9.284,13.497,17.52,11.953c12.217-2.3,24.36-5.552,36.079-9.639c7.822-2.725,11.953-11.279,9.229-19.102   C346.352,475.174,337.826,471.102,329.989,473.768z"/><path d="M213.783,482.264c-10.723-2.036-21.416-4.893-31.772-8.496c-7.837-2.725-16.362,1.421-19.102,9.229   c-2.725,7.822,1.406,16.377,9.229,19.102c11.763,4.102,23.892,7.339,36.079,9.639c0.938,0.176,1.875,0.264,2.798,0.264   c7.075,0,13.359-5.01,14.722-12.217C227.274,491.639,221.928,483.802,213.783,482.264z"/><path d="M83.697,405.041c-5.449-6.255-14.883-6.943-21.167-1.538c-6.255,5.42-6.958,14.897-1.538,21.167   c8.13,9.39,16.992,18.252,26.367,26.338c6.354,5.47,15.825,4.645,21.152-1.553c5.42-6.27,4.717-15.747-1.553-21.152   C98.683,421.169,90.86,413.347,83.697,405.041z"/><path d="M29.736,298.217c-1.538-8.13-9.331-13.374-17.52-11.953c-8.145,1.538-13.491,9.375-11.953,17.52   c2.3,12.188,5.537,24.316,9.639,36.079c2.153,6.182,7.954,10.063,14.165,10.063c10.336,0,17.551-10.215,14.165-19.937   C34.629,319.633,31.773,308.94,29.736,298.217z"/><path d="M29.004,162.909c-7.72-2.681-16.348,1.406-19.102,9.229C5.815,183.857,2.564,196,0.264,208.217   c-1.538,8.145,3.809,15.981,11.953,17.52c0.938,0.176,1.875,0.264,2.798,0.264c7.075,0,13.359-5.01,14.722-12.217   c2.036-10.752,4.893-21.445,8.496-31.772C40.957,174.189,36.826,165.634,29.004,162.909z"/><path d="M256,151c-57.891,0-105,47.109-105,105s47.109,105,105,105s105-47.109,105-105S313.891,151,256,151z"/></g><g transform="matrix(0.235702257666347 0.17677668225320478 -0.17677668225320478 0.235702257666347 343.1825307274381 103.69724997928427)" id="L1_21"><path d="M0,24.327c0,13.414,10.913,24.327,24.327,24.327s24.327-10.913,24.327-24.327S37.741,0,24.327,0    S0,10.913,0,24.327z M24.327,3c11.76,0,21.327,9.567,21.327,21.327s-9.567,21.327-21.327,21.327S3,36.087,3,24.327    S12.567,3,24.327,3z" fill="#010002"/><path d="M24.327,41.274c9.345,0,16.947-7.603,16.947-16.947c0-9.345-7.603-16.947-16.947-16.947    c-9.345,0-16.947,7.602-16.947,16.947C7.38,33.672,14.982,41.274,24.327,41.274z M24.327,9.38c8.242,0,14.947,6.705,14.947,14.947    s-6.705,14.947-14.947,14.947S9.38,32.569,9.38,24.327C9.38,16.085,16.085,9.38,24.327,9.38z" fill="#010002"/><path d="M24.327,32.332c4.414,0,8.005-3.591,8.005-8.005s-3.591-8.005-8.005-8.005    s-8.005,3.591-8.005,8.005C16.322,28.741,19.913,32.332,24.327,32.332z M24.327,17.322c3.862,0,7.005,3.143,7.005,7.005    s-3.143,7.005-7.005,7.005s-7.005-3.143-7.005-7.005S20.465,17.322,24.327,17.322z" fill="#010002"/></g><g transform="matrix(0.02209786316458896 0.005524465779179135 -0.005524465779179135 0.02209786316458896 227.75721026933508 117.92868379039537)" id="L1_22"><path d="M52.4,115.877c-4.257-2.709-9.91-1.453-12.623,2.807c-6.769,10.639-12.792,21.865-17.907,33.367    c-2.052,4.615,0.027,10.018,4.641,12.07c1.208,0.537,2.469,0.791,3.71,0.791c3.503,0,6.845-2.024,8.361-5.432    c4.746-10.678,10.341-21.102,16.626-30.981C57.918,124.239,56.661,118.587,52.4,115.877z"/><path d="M165.282,26.042c-2.025-4.626-7.423-6.73-12.047-4.704c-11.538,5.059-22.805,11.034-33.49,17.76    c-4.273,2.69-5.557,8.336-2.867,12.61c1.737,2.761,4.708,4.274,7.747,4.274c1.665,0,3.349-0.454,4.862-1.406    c9.919-6.244,20.38-11.791,31.092-16.487C165.204,36.06,167.312,30.666,165.282,26.042z"/><path d="M21.781,297.271c-2.014-11.501-3.19-23.279-3.494-35.01c-0.132-5.048-4.315-9.015-9.379-8.903    c-5.05,0.131-9.035,4.33-8.905,9.379c0.328,12.626,1.594,25.305,3.762,37.689c0.779,4.442,4.639,7.568,8.997,7.568    c0.525,0,1.056-0.044,1.587-0.138C19.325,306.985,22.652,302.246,21.781,297.271z"/><path d="M20.348,181.35c-4.885-1.349-9.906,1.517-11.247,6.384c-3.349,12.144-5.811,24.652-7.323,37.178    c-0.607,5.013,2.967,9.568,7.981,10.173c0.373,0.045,0.741,0.067,1.107,0.067c4.561,0,8.508-3.408,9.066-8.049    c1.404-11.627,3.692-23.237,6.8-34.507C28.074,187.727,25.217,182.691,20.348,181.35z"/><path d="M44.028,363.818c-5.325-10.44-9.904-21.359-13.612-32.454c-1.603-4.792-6.785-7.368-11.573-5.773    c-4.789,1.601-7.374,6.781-5.773,11.571c3.996,11.954,8.93,23.717,14.665,34.963c1.616,3.169,4.825,4.993,8.153,4.993    c1.397,0,2.817-0.321,4.148-1C44.535,373.824,46.323,368.316,44.028,363.818z"/><path d="M480.378,132.585c-6.079-11.036-13.04-21.72-20.691-31.752c-3.063-4.018-8.803-4.789-12.817-1.727    c-4.016,3.062-4.789,8.801-1.726,12.816c7.104,9.317,13.569,19.237,19.213,29.486c1.665,3.025,4.793,4.735,8.019,4.735    c1.491,0,3.003-0.366,4.403-1.136C481.204,142.57,482.814,137.009,480.378,132.585z"/><path d="M506.626,203.513c-2.572-12.362-6.097-24.628-10.477-36.452c-1.753-4.735-7.012-7.151-11.752-5.399    c-4.735,1.754-7.153,7.015-5.398,11.751c4.063,10.973,7.334,22.354,9.723,33.827c0.897,4.317,4.702,7.283,8.943,7.283    c0.616,0,1.243-0.064,1.871-0.194C504.481,213.3,507.655,208.456,506.626,203.513z"/><path d="M373.282,28.303c-11.212-5.79-22.943-10.781-34.867-14.836c-4.796-1.626-9.975,0.934-11.602,5.714    c-1.625,4.781,0.934,9.975,5.713,11.601c11.069,3.763,21.959,8.397,32.367,13.771c1.342,0.693,2.775,1.021,4.188,1.021    c3.311,0,6.508-1.805,8.131-4.951C379.529,36.137,377.77,30.62,373.282,28.303z"/><path d="M84.796,420.957c-8.131-8.432-15.699-17.537-22.497-27.062c-2.936-4.112-8.651-5.064-12.754-2.131    c-4.112,2.934-5.066,8.644-2.132,12.755c7.318,10.253,15.467,20.055,24.22,29.133c1.793,1.861,4.186,2.796,6.581,2.796    c2.286,0,4.572-0.851,6.347-2.562C88.198,430.381,88.303,424.593,84.796,420.957z"/><path d="M236.354,9.642c-0.58-5.016-5.099-8.61-10.136-8.034c-12.542,1.451-25.064,3.852-37.214,7.136    c-4.876,1.317-7.758,6.338-6.441,11.213c1.101,4.078,4.791,6.761,8.823,6.761c0.788,0,1.592-0.103,2.391-0.319    c11.276-3.047,22.899-5.275,34.544-6.623C233.338,19.196,236.935,14.658,236.354,9.642z"/><path d="M301.724,3.978c-12.361-2.23-25.035-3.561-37.669-3.955c-0.098-0.003-0.194-0.005-0.29-0.005    c-4.918,0-8.981,3.909-9.135,8.86c-0.156,5.048,3.807,9.267,8.854,9.425c11.741,0.366,23.513,1.602,34.995,3.674    c0.549,0.099,1.094,0.146,1.634,0.146c4.338,0,8.191-3.101,8.988-7.521C309.998,9.63,306.696,4.875,301.724,3.978z"/><path d="M429.29,432c-3.409-3.728-9.193-3.983-12.919-0.575c-8.644,7.908-17.945,15.234-27.645,21.775    c-4.188,2.824-5.293,8.507-2.469,12.694c1.766,2.62,4.653,4.033,7.591,4.033c1.757,0,3.536-0.507,5.103-1.564    c10.444-7.042,20.459-14.93,29.766-23.444C432.442,441.51,432.699,435.726,429.29,432z"/><path d="M473.172,373.772c-4.342-2.575-9.955-1.14-12.529,3.203c-5.968,10.063-12.737,19.772-20.122,28.855    c-3.186,3.918-2.592,9.678,1.326,12.864c1.697,1.378,3.735,2.049,5.764,2.049c2.657,0,5.293-1.153,7.099-3.376    c7.952-9.779,15.239-20.231,21.662-31.065C478.95,381.957,477.516,376.348,473.172,373.772z"/><path d="M434.563,72.479c-9.033-8.798-18.793-16.991-29.005-24.356c-4.097-2.951-9.814-2.028-12.766,2.07    c-2.954,4.096-2.029,9.811,2.067,12.766c9.486,6.84,18.552,14.452,26.946,22.623c1.777,1.731,4.079,2.593,6.378,2.593    c2.38,0,4.76-0.924,6.552-2.765C438.26,81.791,438.182,76.002,434.563,72.479z"/><path d="M498.098,305.276c-4.911-1.188-9.85,1.833-11.035,6.741c-2.748,11.37-6.378,22.632-10.79,33.473    c-1.904,4.678,0.346,10.014,5.023,11.917c1.13,0.459,2.295,0.676,3.445,0.676c3.608,0,7.028-2.151,8.472-5.7    c4.753-11.683,8.664-23.819,11.625-36.072C506.026,311.403,503.007,306.463,498.098,305.276z"/><path d="M511.576,241.073c-0.286-5.044-4.619-8.89-9.649-8.611c-5.041,0.287-8.897,4.607-8.608,9.649    c0.261,4.592,0.393,9.245,0.393,13.826c-0.002,7.126-0.321,14.316-0.949,21.371c-0.446,5.031,3.268,9.471,8.298,9.919    c0.277,0.024,0.549,0.037,0.822,0.037c4.684,0,8.676-3.581,9.098-8.335c0.674-7.589,1.018-15.323,1.02-22.989    C512,251.012,511.857,246.01,511.576,241.073z"/><path d="M140.39,463.767c-10.212-5.692-20.093-12.201-29.371-19.346c-3.998-3.082-9.743-2.338-12.824,1.664    c-3.081,4.002-2.338,9.743,1.665,12.825c9.988,7.693,20.628,14.702,31.626,20.833c1.409,0.785,2.936,1.157,4.443,1.157    c3.21,0,6.322-1.691,7.997-4.694C146.384,471.797,144.801,466.226,140.39,463.767z"/><path d="M301.436,498.831c-0.739-4.997-5.374-8.447-10.383-7.709c-16.46,2.434-33.515,3.141-50.171,2.101    c-5.043-0.32-9.383,3.515-9.698,8.556c-0.315,5.04,3.516,9.382,8.555,9.697c5.365,0.336,10.821,0.506,16.219,0.506    c12.643,0,25.35-0.931,37.77-2.767C298.724,508.476,302.175,503.827,301.436,498.831z"/><path d="M102.151,62.576c-3.289-3.832-9.06-4.271-12.895-0.981c-9.562,8.209-18.597,17.2-26.85,26.722    c-3.309,3.816-2.896,9.591,0.92,12.9c1.73,1.5,3.862,2.235,5.985,2.235c2.561,0,5.106-1.068,6.914-3.155    c7.669-8.846,16.061-17.199,24.944-24.827C105.002,72.18,105.44,66.406,102.151,62.576z"/><path d="M206.03,488.444c-11.448-2.447-22.803-5.774-33.751-9.892c-4.731-1.78-10.002,0.612-11.779,5.34    c-1.777,4.727,0.614,10,5.34,11.779c11.797,4.436,24.033,8.023,36.368,10.658c0.645,0.137,1.286,0.204,1.92,0.204    c4.222,0,8.017-2.941,8.934-7.235C214.116,494.359,210.968,489.499,206.03,488.444z"/><path d="M370.363,474.984c-2.172-4.56-7.631-6.489-12.189-4.32c-10.58,5.044-21.617,9.331-32.807,12.741    c-4.831,1.472-7.555,6.581-6.081,11.413c1.201,3.943,4.825,6.481,8.745,6.481c0.882,0,1.779-0.128,2.668-0.4    c12.055-3.674,23.948-8.292,35.347-13.725C370.604,485,372.537,479.542,370.363,474.984z"/><path d="M255.958,91.341c-90.76,0-164.598,73.838-164.598,164.598s73.838,164.598,164.598,164.598S420.556,346.7,420.556,255.94    S346.718,91.341,255.958,91.341z M255.958,402.25c-80.676,0-146.31-65.635-146.31-146.31s65.634-146.31,146.31-146.31    s146.31,65.635,146.31,146.31S336.634,402.25,255.958,402.25z"/></g><path d="M437.02,74.981C388.667,26.629,324.38,0,256,0c-44.774,0-88.839,11.73-127.433,33.922    c-37.431,21.524-69.072,52.414-91.503,89.329c-2.157,3.55-1.028,8.177,2.522,10.334c3.551,2.16,8.177,1.028,10.334-2.522    c21.117-34.755,50.905-63.836,86.145-84.1c34.152-19.638,72.866-30.568,112.412-31.801v481.664    c-61.542-1.874-119.128-26.713-162.859-70.446C40.108,380.871,15.044,320.362,15.044,256c0-29.188,5.16-57.712,15.336-84.778    c1.462-3.889-0.505-8.226-4.394-9.688c-3.885-1.458-8.226,0.504-9.688,4.394C5.483,194.693,0,224.997,0,256    c0,68.38,26.629,132.667,74.98,181.019C123.332,485.371,187.62,512,256,512c85.984,0,165.757-42.815,213.393-114.532    c2.299-3.46,1.357-8.129-2.104-10.427c-3.459-2.3-8.129-1.357-10.427,2.104c-43.449,65.411-115.295,105.282-193.34,107.695V15.172    c61.542,1.875,119.128,26.713,162.859,70.446c45.51,45.51,70.574,106.019,70.574,170.382c0,32.2-6.245,63.458-18.56,92.906    c-1.604,3.832,0.205,8.239,4.037,9.842c0.949,0.397,1.932,0.585,2.899,0.585c2.942,0,5.736-1.737,6.942-4.622    C505.364,323.416,512,290.205,512,256.001C512,187.62,485.371,123.333,437.02,74.981z" transform="matrix(0.022344087693902177 0.006093841958814431 -0.006093841958814431 0.022344087693902177 42.83993709181754 242.71989000890454)" id="L1_24"/><path d="M54.168,0C24.3,0,0,24.3,0,54.168c0,29.869,24.3,54.168,54.168,54.168s54.168-24.299,54.168-54.168   C108.336,24.3,84.036,0,54.168,0z M89.855,23.386c0.004,0.125,0.011,0.25,0.017,0.374c-0.011,0.028-0.021,0.057-0.03,0.085   c-0.398-0.683-0.812-1.357-1.24-2.025c0.043,0.042,0.096,0.079,0.139,0.122c0.393,0.394,0.893,0.622,1.291,0.992   C90.383,23.262,90.162,23.333,89.855,23.386z" transform="matrix(3.2072445386952213e-18 0.052378278225660324 -0.052378278225660324 3.2072445386952213e-18 307.7353836968541 297.0785296484828)" id="L1_25"/><g transform="matrix(-0.01029405298582271 0.018529295772447763 -0.018529295772447763 -0.01029405298582271 273.3710954501856 174.88507588345067)" id="L1_26"><path d="M121.074,77.298l-19.312-25.504c-9.07,6.891-17.676,14.374-25.76,22.4l22.496,22.688     C105.582,89.862,113.124,83.32,121.074,77.298z"/><path d="M78.738,119.218L53.426,99.634c-6.965,9.03-13.316,18.518-19.008,28.4l27.68,16     C67.086,135.401,72.645,127.11,78.738,119.218z"/><path d="M353.491,19.296C322.605,6.586,289.529,0.042,256.13,0.034c-44.108-0.016-87.472,11.365-125.888,33.04l15.744,27.856     c28.896-16.292,61.054-25.954,94.144-28.288v446.576C116.735,470.362,23.883,363.153,32.739,239.758     c1.701-23.698,7.161-46.974,16.175-68.956L19.33,158.61c-53.806,130.746,8.567,280.356,139.313,334.161     s280.356-8.567,334.161-139.313S484.238,73.102,353.491,19.296z M272.13,32.85c21.862,1.536,43.375,6.302,63.84,14.144     l-63.84,63.856V32.85z M272.13,156.05l94.608-94.608c14.093,8.077,27.269,17.658,39.296,28.576L272.13,224.034V156.05z      M272.13,269.17l156.224-156.208c10.444,12.641,19.474,26.387,26.928,40.992L272.13,337.09V269.17z M290.754,477.073     l186.432-186.512C462.057,386.583,386.762,461.904,290.754,477.073z M272.13,450.37v-67.936l196.56-196.64     c6.085,18.528,9.711,37.776,10.784,57.248L272.13,450.37z"/></g><g transform="matrix(0.0193364616728307 0.03867292190225072 -0.03867292190225072 0.0193364616728307 23.950133818731523 -10.850402195220843)" id="L1_27"><path d="M256.04,0h-14.928h-0.264h-1.768h-0.272l0,0h-0.28l0,0h-0.28l0,0h-0.176h-0.128h-0.176h-0.128   h-0.176h-0.12h-0.192l0,0h-0.296l0,0h-0.288l0,0h-0.288l0,0h-0.296l0,0h-0.296l0,0l-0.8,0.064l0,0h-0.296l0,0h-0.296l0,0h-0.304   l0,0c-5.936,0.536-11.8,1.24-17.6,2.128L218.864,18c12.32-1.616,24.752-2.288,37.176-2L256.04,0L256.04,0z M177.32,12.328   c-12.696,4.088-25.048,9.176-36.944,15.2l7.2,14.272c11.152-5.656,22.728-10.424,34.624-14.272l-4.912-15.2H177.32z    M106.264,48.328c-10.816,7.824-21,16.48-30.472,25.888l11.264,11.36c8.888-8.808,18.44-16.912,28.576-24.24l-9.368-12.968   C106.264,48.368,106.264,48.328,106.264,48.328z M49.68,104.472c-2.136,2.928-4.224,5.904-6.28,8.92l0,0l-0.256,0.384l0,0   l-0.168,0.256l0,0l-0.088,0.128l0,0l-0.168,0.248l0,0l-0.08,0.12l0,0l-0.08,0.12l0,0l-0.08,0.12l0,0l-0.16,0.24l0,0l-0.08,0.12l0,0   l-0.08,0.12l0,0l-0.08,0.12l0,0l-0.08,0.12l0,0l-0.072,0.112l0,0l-0.072,0.112l0,0l-0.072,0.112l0,0l-0.08,0.12l0,0l-0.072,0.112   l0,0l-0.072,0.104l0,0l-0.072,0.112l0,0l-0.072,0.112l0,0l-0.072,0.104l0,0l-0.072,0.112l0,0l-0.064,0.104l0,0l-0.072,0.112l0,0   l-0.072,0.112l0,0L41,117.024l0,0l-0.072,0.112l0,0l-0.072,0.112l0,0l-0.072,0.104l0,0l-0.072,0.112l0,0l-0.064,0.104l0,0   l-0.072,0.112l0,0l-0.072,0.112l0,0l-0.056,0.096l0,0l-0.064,0.104l0,0l-0.056,0.088l0,0l-0.056,0.096v0.04l-0.064,0.104l0,0   l-0.056,0.088l0,0l-0.064,0.104l0,0l-0.064,0.096l0,0l-0.056,0.088l0,0l-0.064,0.104l0,0l-0.056,0.08l0,0l-0.064,0.096v0.04   l-0.064,0.104l0,0l-0.048,0.08l0,0l-0.064,0.104l0,0l-0.056,0.088v0.048l-0.048,0.08v0.04l-0.064,0.104v0.04l-0.048,0.072v0.048   l-0.056,0.088v0.048l-0.896,1.16v0.04l-0.048,0.072v0.04l-0.064,0.104v0.048l-0.048,0.072v0.064l-0.048,0.08v0.048l-0.064,0.096   v0.04l-0.048,0.08l0,0l-0.064,0.104v0.048L38,122.144v0.048l-0.048,0.08v0.04l-0.064,0.096v0.04l-0.048,0.08v0.048l-0.056,0.088   v0.048l-0.064,0.096v0.048l-0.048,0.072v0.04l-0.064,0.096v0.048l-0.056,0.096l0,0l-0.056,0.088v0.04l-0.064,0.104v0.04   l-0.048,0.08v0.056l-0.056,0.088v0.048l-0.064,0.104v0.04l-0.04,0.072v0.048l-0.056,0.096v0.048l-0.048,0.08v0.056l-0.048,0.08   v0.048l-0.064,0.104v0.04l-0.048,0.072v0.048l-0.056,0.096v0.048l-0.048,0.08v0.064l-0.04,0.072v0.048l-0.056,0.096v0.056v0.064   v0.064l-0.048,0.08v0.048l-0.056,0.104v0.04l-0.048,0.072v0.04l-0.064,0.104v0.04l-0.056,0.088v0.056l-0.048,0.08v0.048   l-0.056,0.096v0.048l-0.04,0.072v0.056l-0.056,0.088v0.048l-0.056,0.104v0.048l-0.04,0.072v0.048l-0.056,0.096V127l-0.048,0.08   v0.056l-0.048,0.08v0.048l-0.056,0.096v0.048l-0.04,0.072v0.048l-0.056,0.096v0.048l-0.056,0.088v0.048l-0.048,0.08v0.04   l-0.056,0.104v0.04l-0.048,0.088v0.048l-0.056,0.088v0.048l-0.056,0.104v0.04l-0.048,0.08l0,0l-0.056,0.104v0.04l-0.056,0.096l0,0   l-0.048,0.088v0.048l-0.056,0.104v0.04l-0.048,0.088v0.04l-0.056,0.096v0.048l-0.056,0.104v0.04l-0.04,0.08v0.04l-0.056,0.104v0.04   l-0.056,0.096v0.04l-0.048,0.088v0.048l-0.056,0.104v0.04l-0.048,0.08l0,0l-0.056,0.104v0.04l-0.056,0.104v0.04l-0.048,0.08v0.04   l-0.056,0.104l0,0l-0.056,0.096l0,0l-0.056,0.104l0,0l-0.064,0.112l0,0l-0.048,0.096l0,0l-0.064,0.112l0,0L34.28,131.4l0,0   l-0.048,0.096l0,0L32.04,132l0,0l-0.056,0.096l0,0l-0.064,0.112l0,0l-0.064,0.112l0,0l-0.056,0.104l0,0l-0.064,0.12l0,0   l-0.064,0.112l0,0l-0.056,0.104l0,0l-0.064,0.112l0,0l-0.064,0.112l0,0l-0.064,0.12l0,0l-0.064,0.12l0,0l-0.056,0.112l0,0   l-0.064,0.12l0,0l-0.136,0.248l0,0l-0.064,0.12l0,0l-0.064,0.12l0,0l-0.064,0.128l0,0l-0.136,0.256l0,0l-0.064,0.128l0,0   l-0.064,0.128l0,0l-0.072,0.128l0,0l-0.072,0.128l0,0l-0.072,0.128l0,0l-0.064,0.128l0,0l-0.136,0.256l0,0l-0.064,0.128l0,0   l-0.064,0.128l0,0l-0.072,0.128l0,0l-0.072,0.128l0,0l-0.072,0.128l0,0l-0.072,0.136l0,0l-0.144,0.264l0,0l-0.072,0.136l0,0   l-0.072,0.136l0,0l-0.072,0.136l0,0l-0.144,0.272l0,0l-0.072,0.136l0,0l-0.144,0.272l0,0l-0.144,0.272l14.208,7.36   c5.752-11.104,12.368-21.744,19.776-31.816L49.68,104.472z M13.048,175.2c-1.304,3.912-2.512,7.872-3.624,11.872l0,0l-0.08,0.296   l0,0l-0.08,0.296l0,0l-0.12,0.448l0,0l-0.08,0.296l0,0l-0.08,0.288l0,0v0.144l0,0v0.144l0,0v0.144l0,0l-0.072,0.28l0,0v0.136l0,0   v0.128l0,0v0.136l0,0v0.128l0,0v0.136l0,0v0.128l0,0v0.128l0,0v0.128l0,0v0.112l0,0v0.128l0,0v0.112l0,0v0.128l0,0v0.128l0,0v0.112   l0,0v0.12l0,0v0.096v0.04v0.12v0.04v0.104l0,0v0.12v0.048v0.104v0.056v0.088v0.056v0.112v0.048v0.088v0.048v0.112v0.056v0.088   v0.064v0.088v0.056v0.096v0.064v0.072v0.064v0.104v0.064v0.072v0.08v0.08v0.064v0.056v0.112v0.064v0.064v0.072v0.104v0.064v0.064   v0.104v0.072v0.056v0.088v0.08v0.072v0.064v0.104v0.064v0.072v0.056v0.112v0.056v0.072v0.104v0.072v0.048v0.12v0.056v0.072v0.048   V196v0.048v0.072v0.056v0.12v0.048v0.128v0.04v0.08v0.048v0.128v0.04v0.08v0.048v0.128v0.536v0.08l0,0v0.168l0,0V198l0,0v0.08   v0.048v0.128v0.144v0.08l0,0v0.144l0,0l-2.472,0.32l0,0v0.168l0,0v0.088l0,0v0.152l0,0v0.088l0,0v0.152v0.04L6.184,200v0.04v0.144   l0,0v0.08l0,0v0.136v0.04v0.08l0,0v0.136v0.144l-0.056,0.256v0.04v0.128v0.048v0.08v0.048v0.136l0,0v0.08l0,0v0.152v0.048v0.128   v0.048v0.08v0.048v0.128v0.152v0.08v0.048v0.12v0.048v0.072v0.08v0.096V203v0.104v0.064v0.072v0.056v0.112v0.056v0.072v0.064v0.104   v0.064v0.072v0.104v0.072v0.064v0.096v0.072v0.064v0.08v0.08v0.088v0.056v0.104v0.064v0.08v0.056v0.112v0.056v0.088v0.048v0.12   v0.056v0.096v0.056v0.096v0.048v0.12v0.048v0.096V206v0.12v0.04v0.096l0,0v0.12v0.024v0.12l0,0v0.104l0,0v0.128l0,0v0.12l0,0v0.136   l0,0v0.128l0,0v0.144l0,0v0.144l0,0v0.136l0,0v0.144l0,0v0.152l0,0v0.152l0,0l-0.056,0.296l0,0c-0.336,1.8-0.656,3.616-0.96,5.432   l15.784,2.608c2.04-12.336,5.04-24.488,8.976-36.352l-15.2-5.048L13.048,175.2z M0.04,253.824v0.264l0,0v1.168l0,0V256l0,0v1.64   l0,0v13.8v0.264v0.944l0,0v0.152v0.264v1.064v0.264l0,0v0.264v0.448v0.16v0.144v0.168l0,0v0.128v0.256v0.144v0.16v0.76v0.256v0.144   v0.152v1.784v0.136v3.456v0.12v0.176v0.12v0.176v0.112l0,0v0.112V284v0.12v0.176v0.12v0.168v0.128l0,0v0.112l0,0v0.136l0,0v0.128   l0,0v0.272l0,0v0.128l0,0v0.136l0,0v0.128l0,0v0.28l0,0v0.28l0,0v0.28l0,0c0.28,2.328,0.584,4.64,0.928,6.944L16.8,291.2   c-1.104-11.696-1.36-23.464-0.76-35.2v-2.04L0.04,253.824z M26.968,327.864l-15.264,4.8c0.632,2,1.28,3.992,1.952,5.976l0,0   l0.408,1.184l0,0c0.344,0.984,0.688,1.968,1.04,2.952l0,0c3.312,9.2,7.152,18.2,11.504,26.952l14.328-7.12   C35.376,351.416,30.704,339.8,26.968,327.864L26.968,327.864z M60.176,394.752L47.144,404c7.688,10.832,16.208,21.056,25.48,30.576   l0,0l0.104,0.112l11.456-11.2c-8.736-8.968-16.76-18.592-24-28.8L60.176,394.752z M112.344,448.256l-9.6,12.8   c8.056,6.032,16.464,11.584,25.176,16.632l0,0l0.416,0.24l0,0l0.24,0.136l0,0l0.144,0.08l0,0l0.232,0.136l0,0l0.144,0.08l0,0   l0.08,0.048l0,0l0.128,0.072l0,0l0.12,0.072l0,0h0.072l0,0l0.12,0.064l0,0h0.072h0.056l0.096,0.056h0.048l0.104,0.056h0.056h0.064   h0.048l0.096,0.056h0.056h0.056l0.096,0.056h0.056h0.064l0.08,0.04h0.064h0.056l0.096,0.056h0.048H131h0.048l0.104,0.056h0.048   l0.08,0.048h0.064l0.072,0.04h0.048l0.104,0.056h0.048l0.08,0.04h0.056l0.088,0.048h0.056l0.096,0.056h0.04l0.08,0.048l0,0   l0.104,0.056l0,0l0.104,0.056l0,0l0.096,0.056l0,0l0.112,0.064l0,0l0.096,0.056l0,0l0.112,0.064l0,0l0.112,0.064l0,0l0.104,0.056   l0,0l0.12,0.064l0,0l0.12,0.064l0,0L133.32,480l0,0l0.128,0.072l0,0l0.128,0.072l0,0l0.128,0.072l0,0l0.128,0.072l0,0l0.128,0.072   l0,0l0.128,0.072l0,0l0.264,0.144l0,0l0.136,0.072l0,0l0.136,0.072l0,0l0.136,0.072l0,0l0.264,0.144l0,0l0.136,0.072l0,0   l0.272,0.144l0,0l0.408,0.216l0,0l8.2-13.064c-11.056-5.848-21.632-12.552-31.648-20.048L112.344,448.256z M178.376,483.2   l-5.176,15.144c9.984,3.408,20.176,6.2,30.504,8.344l0,0l0.304,0.064l0,0l0.304,0.064l0,0h0.152l0,0l0.288,0.056l0,0l0.28,0.056   l0,0h0.136l0,0h0.128l0,0h0.136l0,0h0.128l0,0h0.136l0,0h0.136l0,0h0.112l0,0h0.128h0.04h0.104l0,0h0.12h0.048h0.104h0.048h0.096   h0.056h0.112h0.048h0.08h0.312h0.112h0.056h0.08h0.072h0.096h0.056h0.08h0.096h0.072h0.064h0.08h0.088h0.056h0.08h0.088h0.08h0.048   h0.144l0,0h0.088l0,0h0.152l0,0l0.272,0.048l0,0l0.288,0.056l0,0h0.192l0,0l0.296,0.056l0,0l1.784,0.312l2.736-15.76   C202.256,489.768,190.176,486.944,178.376,483.2z M289.384,493.744c-11.048,1.512-22.192,2.272-33.344,2.256c-1.36,0-2.72,0-4.08,0   l-0.264,16h0.952h22.464h0.256h0.856h0.256h0.152h0.264h0.432h0.264h0.144h0.272h0.144h0.264l0,0h0.4l0,0h0.416l0,0h0.272l0,0   l0.8-0.08l0,0c3.768-0.36,7.504-0.792,11.2-1.312l-2.2-15.848L289.384,493.744z M360.84,472   c-11.24,5.464-22.896,10.032-34.856,13.672l4.656,15.312c12.76-3.88,25.2-8.76,37.2-14.592L360.84,472z M422.128,429.28   c-9.032,8.656-18.72,16.6-28.984,23.76l9.152,13.128l0,0l0.072-0.048h0.04l0.096-0.064h0.048l0.072-0.056h0.056l0.072-0.048h0.048   l0.096-0.064h0.04L403,465.84l0.064-0.04l0.072-0.048h0.056l0.064-0.048l0.08-0.056h0.048h0.056l0.088-0.064h0.056l0.056-0.04   l0.08-0.056h0.048l0.064-0.04l0.08-0.056l0.056-0.04h0.048l0.088-0.064h0.056l0.056-0.04h0.048l0.096-0.072l0,0l0.112-0.08l0,0   l0.064-0.048l0,0l0.112-0.08l0,0l0.064-0.048l0,0l0.144-0.104l0,0l0.128-0.088l0,0l0.072-0.056l0,0l0.136-0.096l0,0l0.216-0.16l0,0   l0.128-0.096l0,0l0.224-0.16l0,0l0.68-0.96l0,0l0.232-0.168l0,0l0.152-0.112l0,0l0.232-0.168l0,0   c3.288-2.408,6.512-4.88,9.672-7.432l0,0l0.368-0.296l0,0l0.592-0.48l0,0l0.584-0.48l0,0l0.36-0.296l0,0l0.216-0.176l0,0   l0.12-0.096l0,0l0.216-0.176l0,0l0.136-0.112l0,0l0.072-0.056l0,0l0.128-0.112l0,0l0.136-0.112l0,0l0.072-0.056l0,0l0.128-0.104   l0,0l0.208-0.176l0,0l0.12-0.104l0,0l0.208-0.176l0,0l0.128-0.104l0,0l0.064-0.056l0,0l0.112-0.096l0,0l0.2-0.168l0,0l0.096-0.08   l0,0l0.064-0.048l0,0l0.104-0.088l0,0l0.48-0.472l0,0l0.064-0.056l0,0l0.096-0.088l0,0l0.192-0.168l0,0l0.096-0.08l0,0l0.056-0.048   l0.056-0.048l0.08-0.064h0.04l0.088-0.072l0.048-0.04l0.056-0.048l0.048-0.04l0.08-0.072h0.048l0.048-0.048l0.08-0.064l0.056-0.048   l0.048-0.04l0.072-0.064l0.056-0.048l0.048-0.04l0.08-0.064l0.048-0.04l0.056-0.048l0.056-0.048l0.072-0.064h0.048l0.064-0.056   l0.064-0.056l0.056-0.048h0.048l0.08-0.072l0.048-0.048l0.224-0.312l0.064-0.056l0.064-0.056l0.048-0.04l0.08-0.072h0.048   l0.056-0.048l0.056-0.048l0.072-0.064h0.04l0.072-0.064l0.056-0.048l0.064-0.056h0.04l0.08-0.072l0.048-0.04l0.056-0.048   l0.056-0.048l0.064-0.056h0.04l0.088-0.072l0,0l0.112-0.28h0.04l0.08-0.072h0.04l0.08-0.072l0,0l0.064-0.056l0,0l0.088-0.072h0.04   l0.072-0.064h0.04l0.072-0.064l0,0l0.088-0.08l0,0l0.072-0.064l0,0l0.088-0.08l0,0l0.088-0.08l0,0l0.072-0.064l0,0l0.088-0.08l0,0   l0.08-0.072l0,0l0.088-0.08l0,0l0.096-0.08l0,0l0.08-0.072l0,0l0.096-0.088l0,0l0.096-0.088l0,0l0.08-0.072l0,0l0.096-0.08l0,0   l0.088-0.08l0,0l0.088-0.08l0,0l0.696-0.76l0,0l0.096-0.088l0,0l0.104-0.088l0,0l0.096-0.088l0,0l0.088-0.08l0,0l0.096-0.088l0,0   l0.096-0.088l0,0l0.096-0.088l0,0l0.096-0.088l0,0l0.088-0.08l0,0l0.096-0.088l0,0l0.096-0.088l0,0l0.088-0.08l0,0l0.096-0.088l0,0   l0.096-0.088l0,0l0.088-0.088l0,0l0.096-0.088l0,0l0.096-0.088l0,0l0.104-0.096l0,0l0.104-0.096l0,0l0.096-0.088l0,0l0.096-0.096   l0,0l0.104-0.096l0,0l0.096-0.088l0,0l0.096-0.088l0,0l0.096-0.088l0,0l0.104-0.096l0,0l0.096-0.096l0,0l0.088-0.088l0,0   l0.096-0.088l0,0l0.096-0.096l0,0l0.096-0.096l0,0l0.104-0.096l0,0l0.104-0.096l0,0l0.104-0.096l0,0l0.712-0.648l0,0l0.096-0.096   l0,0l0.104-0.096l0,0l0.208-0.192l0,0l0.104-0.096l0,0l0.104-0.096l0,0l0.104-0.096l0,0l0.096-0.096l0,0l0.088-0.088l0,0   l0.096-0.096l0,0l-11.064-11.552L422.128,429.28z M467.4,369.848c-5.944,11.008-12.736,21.528-20.312,31.48l12.728,9.696   c2.864-3.736,5.624-7.576,8.28-11.52l0,0l0.264-0.384l0,0l0.168-0.248l0,0l0.08-0.12l0,0l0.08-0.12l0,0l0.08-0.12l0,0l0.08-0.112   l0,0l0.072-0.104l0,0l0.072-0.112l0,0l0.072-0.104l0,0l0.072-0.104l0,0l0.072-0.104l0,0l0.056-0.088l0,0l0.064-0.096v-0.048   l0.056-0.088v-0.048l0.048-0.072v-0.048l0.064-0.096v-0.048l0.04-0.064l0.048-0.08v-0.056v-0.056l0.048-0.072l0.048-0.072v-0.056   l0.056-0.088v-0.056l0.04-0.064v-0.04l0.072-0.104l0,0l0.144-0.216l0,0l0.08-0.128l0,0l0.152-0.232l0,0l0.152-0.24l0,0   c3.768-5.792,7.296-11.736,10.592-17.84l-14.08-7.6L467.4,369.848z M492.144,299.448c-2.248,12.296-5.456,24.4-9.6,36.192   l15.096,5.304c0.664-1.88,1.304-3.768,1.92-5.672l0,0l0.088-0.272l0,0l0.088-0.272l0,0l0.056-0.184l0,0v-0.088l0,0l0.048-0.152l0,0   l0.08-0.256l0,0l0.04-0.136l0,0v-0.072v-0.048v-0.12v-0.048v-0.072v-0.048v-0.112v-0.056v-0.064v-0.104v-0.064v-0.064v-0.088   v-0.072v-0.064v-0.08v-0.072v-0.08v-0.056v-0.112v-0.048v-0.088v-0.048v-0.112v-0.048v-0.088v-0.048v-0.112v-0.048v-0.104v-0.056   v-0.088v-0.048v-0.112v-0.048v-0.096l0,0v-0.12v-0.04v-0.112l0,0v-0.12l0,0v-0.128l0,0v-0.112l0,0v-0.128l0,0v-0.112l0,0v-0.128   l0,0v-0.128l0,0v-0.128l0,0l0.04-0.136l0,0v-0.128l0,0l0.04-0.136l0,0l0.08-0.272l0,0l0.08-0.28l0,0l0.04-0.144l0,0l0.04-0.144l0,0   l1.488-0.728l0,0l0.08-0.288l0,0l0.128-0.44l0,0l0.088-0.296l0,0l0.088-0.296l0,0c1.304-4.544,2.48-9.136,3.536-13.776l0,0   l0.072-0.304l0,0l0.064-0.296l0,0v-0.144l0,0v-0.144l0,0v-0.144l0,0l0.064-0.288l0,0v-0.144l0,0v-0.136l0,0v-0.136l0,0v-0.128l0,0   v-0.136l0,0v-0.136l0,0v-0.128l0,0v-0.128l0,0V310.4l0,0v-0.128l0,0v-0.112l0,0v-0.112v-0.056v-0.12v-0.04v-0.088v-0.384v-0.112   v-0.056v-0.08v-0.056v-0.104v-0.056v-0.08v-0.088v-0.072v-0.064v-0.072v-0.096v-0.064v-0.072v-0.104v-0.072v-0.056v-0.128v-0.048   v-0.08v-0.04v-0.136v-0.04l0.056-0.264l0,0l0.056-0.28l0,0v-0.184l0,0c0.304-1.504,0.592-3.024,0.872-4.544l-15.736-2.872   L492.144,299.448z M509.896,222.648l-15.864,2.064c1.344,10.376,2.008,20.824,2.008,31.288c0,2.04-0.024,4.08-0.08,6.112l16,0.4   c0-0.616,0-1.24,0-1.864l0,0v-1.792l0,0v-0.088l0,0v-0.088l0,0v-0.088l0,0v-2.4l0,0V256l0,0v-7.432l0,0v-0.184l0,0v-0.632v-0.384   V247.2l0,0v-0.304l0,0V246.8l0,0v-0.408l0,0v-0.104l0,0v-0.408l0,0c-0.304-7.864-0.96-15.632-1.96-23.296L509.896,222.648z    M487.368,146.232l-14.448,6.872c5.36,11.264,9.824,22.936,13.36,34.896l15.344-4.52c-3.768-12.792-8.544-25.272-14.272-37.32   L487.368,146.232z M442.368,80.48l-11.64,10.976c8.584,9.104,16.44,18.864,23.512,29.184l13.2-9.04c-1.064-1.6-2.16-3.16-3.28-4.68   l0,0l-0.28-0.392l0,0l-0.16-0.224l0,0l-0.112-0.152l0,0l-0.056-0.08l0,0l-0.104-0.144l0,0l-0.208-0.328l0,0l-0.088-0.12l0,0   L463,105.272l0,0l-0.072-0.096v-0.04l-0.04-0.064v-0.048l-0.064-0.088v-0.048v-0.056l-0.064-0.088v-0.056v-0.056l-0.056-0.08   v-0.056l-0.04-0.056l-0.064-0.088v-0.048l-0.048-0.056l-0.04-0.056l-0.056-0.08v-0.04l-0.064-0.08v-0.056l-0.048-0.064v-0.04   l-0.064-0.088v-0.048l-0.056-0.072l-0.04-0.056l-0.056-0.072v-0.04l-0.072-0.096l0,0l-0.064-0.08l0,0l-0.072-0.104l0,0   l-0.072-0.096l0,0l-0.064-0.088l0,0l-0.08-0.104l0,0l-0.08-0.112l0,0l-0.784-0.376l0,0l-0.08-0.104l0,0l-0.072-0.104l0,0   l-0.088-0.112l0,0l-0.08-0.112l0,0l-0.08-0.104l0,0l-0.088-0.112l0,0l-0.176-0.232l0,0l-0.136-0.24l0,0l-0.176-0.232l0,0   l-0.088-0.12l0,0l-0.096-0.12l0,0l-0.088-0.12l0,0l-0.184-0.24l0,0l-0.288-0.368l0,0l-0.288-0.368l0,0l-0.192-0.248l0,0   c-2.664-3.464-5.432-6.848-8.296-10.168l0,0l-0.2-0.232l0,0L449.88,88.8l0,0l-0.096-0.112l0,0l-0.192-0.224l0,0l-0.096-0.112l0,0   L449.4,88.24l0,0l-0.096-0.104l0,0l-0.088-0.104l0,0l-0.08-0.096l0,0l-0.088-0.096l0,0l-0.208-0.24l0,0l-0.08-0.096l0,0   l-0.08-0.096l0,0l-0.072-0.08l0,0l-0.08-0.096l0,0l-0.08-0.088l0,0l-0.064-0.072l0,0l-0.08-0.088l0,0l-0.264-0.304v-0.048   l-0.064-0.072v-0.04l-0.072-0.088v-0.04l-0.048-0.056l-0.048-0.056l-0.056-0.064l-0.04-0.048l-0.064-0.064l-0.056-0.064   l-0.04-0.048l-0.064-0.08l-0.048-0.056l-0.048-0.056v-0.04l-0.08-0.088l0,0L447.08,85.6l0,0l-0.096-0.112l0,0l-0.096-0.112l0,0   l-0.056-0.064l0,0l-0.12-0.136l0,0l-0.184-0.208l0,0l-0.128-0.136l0,0c-1.304-1.448-2.624-2.88-3.96-4.296L442.368,80.48z    M379.392,31.68l-7.736,13.92c10.952,6.04,21.416,12.92,31.304,20.584l9.808-12.584l0,0l0,0l-0.104-0.08l0,0l-0.208-0.16l0,0   l-0.112-0.088l0,0l-0.064-0.048l0,0l-0.112-0.088l0,0l-0.128-0.096l0,0l-0.296-0.24l0,0l-0.12-0.088l0,0l-0.216-0.16l0,0   l-0.168-0.184l0,0l-0.224-0.168l0,0l-0.272-0.2l0,0l-0.144-0.112l0,0l-0.224-0.168l0,0L410,51.432l0,0   c-2.608-1.968-5.256-3.888-7.944-5.752l0,0l-0.416-0.272l0,0l-1.032-0.712l0,0l-0.24-0.16l0,0l-0.16-0.104l0,0l-0.232-0.16l0,0   l-0.152-0.104l0,0l-0.08-0.056l0,0L399.584,44l0,0l-0.224-0.152l0,0l-0.12-0.08l0,0l-0.072-0.048l0,0l-0.136-0.088l0,0   l-0.144-0.096l0,0l-0.072-0.048l0,0l-0.128-0.088l0,0l-0.224-0.152l0,0l-0.128-0.088l0,0l-0.072-0.048l0,0l-0.12-0.08l0,0   l-0.112-0.08l0,0l-0.392-0.248l0,0l-0.128-0.08l0,0l-0.216-0.144l0,0l-0.12-0.08l0,0l-0.072-0.048l0,0l-0.264-0.168l0,0   l-0.128-0.088l0,0l-0.064-0.04l0,0l-0.112-0.072l0,0l-0.064-0.04h-0.048l-0.096-0.064h-0.04l-0.248-0.216H396l-0.024-0.064h-0.048   l-0.096-0.064h-0.048l-0.08-0.056l-0.064-0.04h-0.064h-0.048l-0.096-0.064h-0.048h-0.056l-0.088-0.256h-0.056h-0.056l-0.072-0.048   l-0.072-0.048h-0.056h-0.056l-0.08-0.056h-0.056h-0.056l-0.088-0.056h-0.056h-0.056l-0.088-0.056h-0.064h-0.056l-0.08-0.056h-0.056   l-0.064-0.04h-0.048l-0.096-0.064h-0.048l-0.072-0.048l-0.064-0.04l-0.104-0.504h-0.048L393.528,40h-0.048l-0.064-0.04l-0.064-0.04   l-0.08-0.048h-0.048l-0.088-0.056h-0.056l-0.072-0.048h-0.048l-0.12-0.168h-0.048l-0.08-0.048h-0.056l-0.08-0.048h-0.048   l-0.096-0.064h-0.048l-0.064-0.04l-0.032-0.2h-0.072h-0.048l-0.128-0.104h-0.048l-0.072-0.048h-0.048l-0.096-0.064h-0.048   l-0.08-0.048H391.6l-0.08-0.048h-0.048l-0.104-0.064l0,0l-0.08-0.048l0,0l-0.096-0.064h-0.04l-0.144-0.312l0,0l-0.088-0.056l0,0   l-0.104-0.064h-0.04l-0.08-0.048h-0.048l-0.088-0.056h-0.04l-0.104-0.064l0,0l-0.08-0.048h-0.04L390.192,38l0,0l-0.104-0.064l0,0   L390,37.88l0,0l-0.32-0.28l0,0l-0.088-0.056l0,0l-0.112-0.064l0,0l-0.104-0.064l0,0l-0.088-0.056l0,0l-0.104-0.064l0,0   l-0.344-0.184l0,0l-0.104-0.064l0,0l-0.112-0.064l0,0l-0.096-0.056l0,0l-0.176-0.128l0,0l-0.112-0.064l0,0l-0.088-0.056l0,0   l-0.104-0.064l0,0l-0.104-0.064l0,0l-0.104-0.064l0,0l-0.112-0.064l0,0l-0.096-0.056l0,0l-0.392-0.216l0,0l-0.112-0.064l0,0   L387.016,36l0,0l-0.104-0.064l0,0l-0.096-0.056l0,0l-0.104-0.064l0,0l-0.272-0.152l0,0l-0.104-0.064l0,0l-0.112-0.064l0,0   l-0.112-0.064l0,0l-0.096-0.056l0,0l-0.112-0.064l0,0L385.64,35.2l0,0l-0.112-0.064l0,0l-0.112-0.064l0,0l-0.096-0.056l0,0   l-0.112-0.064l0,0l-0.112-0.064l0,0l-0.256-0.168l0,0l-0.112-0.064l0,0l-0.096-0.056l0,0l-0.192-0.12l0,0l-0.144-0.08l0,0   l-0.096-0.056l0,0l-0.16-0.096l0,0l-0.096-0.056l0,0l-0.096-0.056l0,0l-0.104-0.064l0,0l-0.096-0.056l0,0l-0.112-0.064l0,0   l-0.296-0.184l0,0l-0.088-0.048l0,0l-0.2-0.12h-0.04l-0.096-0.056l0,0l-0.096-0.056h-0.048l-0.104-0.056l0,0l-0.128-0.12l0,0   l-0.104-0.064l0,0l-0.112-0.064l0,0l-0.088-0.048h-0.04l-0.104-0.056h-0.048l-0.08-0.048h-0.056l-0.08-0.048h-0.048l-0.232-0.184   h-0.04l-0.072-0.04h-0.048l-0.104-0.056h-0.048l-0.08-0.048h-0.064l-0.072-0.04h-0.048l-0.104-0.056h-0.048l-0.08-0.04h-0.064   l-0.08-0.04h-0.056l-0.096-0.056h-0.056h-0.064h-0.056L380.088,32h-0.048h-0.064l-0.088-0.048h-0.056h-0.056l-0.096-0.048h-0.064   h-0.056l-0.088-0.048h-0.064l0,0L379.392,31.68z M304.44,4.568l-3.008,15.712c12.28,2.352,24.352,5.664,36.112,9.904l5.432-15.048   c-6.984-2.52-14.112-4.744-21.376-6.664l0,0l-0.76-0.2l0,0l-0.296-0.08l0,0l-0.448-0.12l0,0L319.784,8l0,0l-0.296-0.08l0,0h-0.136   l0,0h-0.128l0,0h-0.136l0,0l-0.36-0.192l0,0h-0.136l0,0h-0.128l0,0h-0.136l0,0H318.2l0,0h-0.128l0,0h-0.128l0,0h-0.128l0,0h-0.136   l0,0h-0.112l0,0h-0.128l0,0h-0.12l0,0h-0.128l0,0h-0.128l0,0h-0.104l0,0h-0.128l0,0h-0.104l0,0H316.6h-0.04h-0.12l0,0h-0.104   h-0.048h-0.12h-0.528h-0.096h-0.048h-0.12h-0.04L315.24,6.88h-0.04h-0.112h-0.048h-0.112h-0.048h-0.088h-0.048h-0.12h-0.048h-0.088   h-0.048h-0.112h-0.056h-0.096h-0.056h-0.096h-0.048h-0.12h-0.04h-0.088h-0.088h-0.12h-0.048h-0.088h-0.056h-0.104h-0.048h-0.104   h-0.056h-0.088h-0.056h-0.112h-0.048h-0.088H312.6h-0.12h-0.048h-0.096h-0.056h-0.104h-0.056l-0.08-0.744h-0.08h-0.08h-0.056   h-0.112h-0.056h-0.08h-0.056h-0.104h-0.056h-0.096H311.2h-0.088h-0.056h-0.12h-0.048H310.8h-0.04h-0.12h-0.056h-0.088h-0.064   h-0.096h-0.056h-0.12h-0.04h-0.088h-0.048h-0.12h-0.048h-0.088h-0.088L309.56,5.6h-0.048h-0.096h-0.064h-0.088h-0.048h-0.12h-0.048   h-0.096h-0.04h-0.12h-0.048h-0.096l0,0h-0.12h-0.088h-0.128l0,0h-0.104h-0.04l-0.128-0.32l0,0h-0.104l0,0h-0.128l0,0h-0.128l0,0   h-0.12h-0.04l-0.28-0.16l0,0h-0.104l0,0h-0.128h-0.04h-0.112l0,0h-0.128l0,0l-0.288-0.16l0,0h-0.12l0,0h-0.128l0,0h-0.12l0,0   h-0.136l0,0h-0.128l0,0h-0.136l0,0h-0.136l0,0h-0.128l0,0h-0.136l0,0h-0.128l0,0h-0.136l0,0l-0.552-0.392H304.44z M256.04,0v16   c2.728,0,5.448,0.048,8.152,0.136l0.536-16C262.936,0.088,261.152,0.04,259.36,0H256.04z" fill="#999999"/><path d="M256.04,55.904h-9.656l-2.24,0.12l0,0h-0.24h-1.04h-0.24h-0.08   c-8.816,0.584-17.584,1.752-26.248,3.496l1.6,7.84c12.568-2.408,25.344-3.568,38.144-3.456V55.904z M178.144,71.632   c-11.784,4.992-23.064,11.096-33.68,18.248l0,0l-0.064,0.04l0,0h-0.056l0,0h-0.056l0,0h-0.056l0,0h-0.056l0,0h-0.048l0,0h-0.048   l0,0h-0.048l0,0h-0.048l0,0h-0.04l0,0h-0.04l0,0h-0.04l0,0h-0.04l0,0h-0.04l0,0l0,0l0,0l0,0l0,0l0,0l0,0l0,0l0,0l0,0h-0.04l0,0   l-0.12,0.08l4.52,6.6c10.56-7.24,21.816-13.4,33.6-18.4l-3.12-7.368L178.144,71.632z M112.544,116.52   c-9.304,9.568-17.632,20.04-24.856,31.256l6.728,4.336c6.944-10.768,14.944-20.824,23.872-30.008l-5.736-5.6L112.544,116.52z    M69.544,183.344c-2.376,6.088-4.456,12.32-6.24,18.696l0,0v0.064l0,0v0.048v0.096v0.056l0,0v0.048l0,0v0.04v0.152v0.048l0,0v0.056   l0,0v0.048v0.248v0.048l0,0v0.048l0,0v0.048l0,0v0.056l0,0v0.064l0,0v0.056l0,0v0.056l0,0v0.056l0,0v0.056l0,0v0.064l0,0v0.064l0,0   v0.064l0,0v0.064l0,0v0.064l0,0v0.064l0,0v0.064l0,0v0.072l0,0v0.064l0,0v0.064l0,0v0.072l0,0l-0.056,0.224l0,0v0.072l0,0   c-1.464,5.56-2.696,11.208-3.688,16.952l7.888,1.36c1.968-12.456,5.168-24.688,9.552-36.512L69.544,183.344z M64.04,261.432   l-8,0.224c0.168,5.992,0.592,11.928,1.28,17.792v1.768l0,0v0.072l0,0v0.072l0,0v0.072l0,0v0.072l0,0v0.296l0,0v0.064l0,0v0.072l0,0   v0.072l0,0v0.072l0,0v0.072l0,0v0.072l0,0v0.176l0,0v0.072l0,0v0.072l0,0v0.072l0,0L57.368,283l0,0   c0.832,6.184,1.944,12.272,3.336,18.264l7.792-1.8C65.752,286.968,64.264,274.224,64.04,261.432z M81.248,335.744l-7.272,3.328   c0.536,1.144,1.064,2.28,1.6,3.408l0,0v0.056l0,0v0.056l0,0v0.056l0,0v0.056l0,0v0.048l0,0v0.04l0,0l0,0l0,0l0,0v0.04l0,0v0.048   l0,0v0.048l0,0v0.048l0,0v0.048l0,0v0.056l0,0v0.056l0,0c4.248,8.72,9.12,17.112,14.584,25.12l0,0l0.04,0.064l0,0l0.04,0.056l0,0   l0.04,0.056l0,0v0.056l0,0v0.048l0,0v0.056l0,0v0.056l0,0v0.056l0,0v0.056l0,0l0.296,0.424l0,0v0.048l0,0l0,0l0,0l0,0l0,0l0,0   v0.048l0,0v0.048l0,0v0.04l0,0v0.04l0,0v0.048l0,0v0.048l0,0v0.048l0,0v0.048l0,0v0.056l0,0v0.056l0,0v0.048l0,0v0.056l0,0   l0.04,0.064l0,0c0.68,0.976,1.376,1.944,2.08,2.912l6.472-4.704c-7.536-10.36-14.016-21.448-19.344-33.096L81.248,335.744z    M126.112,397.464l-5.416,5.888l0.232,0.208l0,0l0.224,0.208l0,0c9.696,8.856,20.24,16.744,31.48,23.544l4.144-6.848   c-10.96-6.632-21.24-14.344-30.672-23.016L126.112,397.464z M191.4,436.936l-2.696,7.536c4.904,1.752,9.888,3.32,14.96,4.688l0,0   h0.072l0,0l0.52,0.144l0,0l0.296,0.08l0,0h0.072l0,0l0.224,0.056l0,0h0.064l0,0l0.52,0.136l0,0h0.064l0,0h0.144l0,0h0.072l0,0   h0.064l0,0h0.144l0,0h0.072l0,0h0.136l0,0h0.144l0,0l0.8,0.208l0,0h0.048l0,0h0.048l0,0h0.056l0,0h0.056l0,0h0.056l0,0h0.056l0,0   h0.056l0,0h0.056h0.656h0.056l0,0h0.056l0,0h0.056l0,0h0.056l0,0h0.048h0.256h0.048l0,0h0.056h0.176h0.048l0,0h0.048l0,0h0.056l0,0   h0.056l0,0h0.064l0,0h0.064l0,0h0.056l0,0h0.056l0,0h0.056l0,0h0.056l0,0h0.056h0.096h0.056l0,0h0.056l0,0h0.056l0,0h0.064l0,0   h0.072l0,0h0.064l0,0h0.064l0,0h0.064l0,0h0.072l0,0h0.072l0,0h0.064l0,0h0.064l0,0h0.064l0,0h0.064l0,0h0.056l0,0h0.064l0,0h0.064   l0,0h0.064l0,0h0.056l0,0h0.064l0,0h0.064l0,0h0.064l0,0h0.064l0,0h0.064l0,0h0.064l0,0h0.064l0,0h0.064l0,0h0.064l0,0h0.064l0,0   h0.064l0,0h0.056l0,0h0.064l0,0h0.072l0,0h0.064l0,0h0.072l0,0h0.072l0,0h0.072l0,0h0.08l0,0h0.072l0,0   c1.528,0.336,3.072,0.656,4.616,0.952l0,0h0.152l0,0h0.072l0,0h0.072l0,0h0.144l0,0h0.064l0,0h0.064l0,0h0.064l0,0h0.064h3.68   h0.072h0.08h0.072l0,0h0.072l0,0h0.072h0.08c1.6,0.264,3.152,0.512,4.744,0.736l1.136-7.92c-12.68-1.816-25.144-4.904-37.208-9.208   L191.4,436.936z M304.8,441.856c-12.392,3.232-25.08,5.224-37.872,5.936l0.448,8c1.152-0.064,2.304-0.136,3.448-0.224h4.376   c10.68-1.016,21.256-2.888,31.632-5.6l-2.024-7.736L304.8,441.856z M373.256,408.208c-10.144,7.824-21.048,14.616-32.544,20.272   l3.528,7.2c2.016-0.992,4.016-2.016,5.992-3.072l0,0h0.056l0,0h0.056l0,0h0.048l0,0h0.04l0,0h0.04l0,0l0,0l0,0l0,0l0,0l0,0l0,0l0,0   l0,0l0,0l0,0l0,0l0,0l0,0l0,0l0,0l0,0l0,0h0.04l0,0h0.04l0,0h0.048l0,0h0.048l0,0h0.056l0,0h0.056l0,0h0.064l0,0l0.688-0.376l0,0   h0.064l0,0h0.064l0,0h0.064l0,0h0.064l0,0h0.056l0,0h0.056l0,0h0.056l0,0h0.056l0,0h0.056l0,0h0.064l0,0h0.064l0,0h0.064l0,0h0.064   l0,0c4.176-2.32,8.256-4.784,12.24-7.392l0,0l0.064-0.04l0,0h0.056l0,0l0.064-0.04l0,0h0.056l0,0h0.056l0,0h0.056l0,0h0.056l0,0   h0.056l0,0h0.048l0,0h0.048l0,0h0.048l0,0h0.048l0,0h0.056l0,0h0.056l0,0h0.056l0,0h0.056l0,0l0.064-0.04l0,0l0.064-0.04l0,0   l0.384-0.256l0,0h0.04l0,0h0.048l0,0h0.04l0,0l0,0l0,0l0,0l0,0l0,0l0,0h0.04l0,0l0,0l0,0l0,0l0,0l0,0l0,0l0,0l0,0l0,0l0,0l0,0l0,0   l0,0l0,0l0,0l0,0l0,0h0.04l0,0l0,0l0,0l0,0l0,0h0.04l0,0h0.056l0,0c3.352-2.28,6.632-4.648,9.832-7.12l-4.888-6.336   L373.256,408.208z M423.288,350.608c-6.32,11.144-13.736,21.632-22.136,31.304l6.04,5.248c4.376-5.032,8.488-10.28,12.352-15.744   l0,0v-0.048l0,0v-0.048l0,0v-0.048l0,0v-0.048l0,0v-0.048l0,0v-0.048l0,0v-0.048l0,0v-0.048l0,0l0,0l0,0l0,0l0,0l0,0l0,0v-0.04l0,0   v-0.04l0,0v-0.04l0,0v-0.048l0,0v-0.048l0,0v-0.048v-0.04l0,0l0.04-0.064l0,0l0.04-0.064l0,0v-0.048l0,0v-0.056l0,0v-0.048l0,0   V370.4l0,0v-0.048l0,0v-0.048l0,0v-0.048l0,0v-0.04l0,0v-0.048l0,0v-0.048l0,0v-0.048l0,0v-0.048l0,0v-0.048l0,0v-0.056l0,0   l0.04-0.064l0,0V369.8l0,0l0.048-0.064l0,0c3.224-4.704,6.256-9.544,9.08-14.528l-6.96-3.944L423.288,350.608z M446.904,278.088   c-1.456,12.72-4.184,25.272-8.144,37.448l7.608,2.48c1.976-6.056,3.656-12.24,5.056-18.544l0,0v-0.152l0,0v-0.144l0,0v-0.072l0,0   v-0.064l0,0v-0.064l0,0v-0.056l0,0v-0.072l0,0v-0.064l0,0v-0.072l0,0v-0.056l0,0v-0.064l0,0v-0.056v-0.632l0,0v-0.064l0,0v-0.144   l0,0c1.288-6.088,2.288-12.264,3.008-18.544l-7.952-0.912L446.904,278.088z M448.152,199.8l-7.68,2.24   c3.584,12.296,5.928,24.92,7,37.688l8-0.672c-1.112-13.296-3.56-26.456-7.296-39.264L448.152,199.8z M411.096,129.504l-6.192,5.064   c8.104,9.92,15.2,20.632,21.184,31.96l7.08-3.736C426.936,150.992,419.552,139.84,411.096,129.504L411.096,129.504z M349.64,79.096   l-3.744,7.072c11.32,6.008,22.008,13.12,31.912,21.248l5.072-6.184C372.568,92.768,361.432,85.352,349.64,79.096z M273.4,56.648   l-0.688,8c12.76,1.096,25.384,3.472,37.672,7.08L312.64,64c-4.136-1.208-8.336-2.288-12.6-3.248l0,0h-0.152l0,0h-0.152l0,0   l-0.296-0.064l0,0h-0.072l0,0h-0.072l0,0h-0.072l0,0h-0.064l0,0h-0.064l0,0h-0.064l0,0h-0.064l0,0h-0.064l0,0h-0.064l0,0h-0.064   l0,0h-0.064l0,0h-0.064l0,0h-0.064l0,0h-0.064l0,0h-0.072l0,0h-0.064l0,0h-0.064l0,0h-0.064l0,0h-0.064l0,0h-0.064l0,0h-0.056l0,0   h-0.064h-0.368h-0.064h-4.864h-0.064l0,0h-0.072l0,0h-0.064l0,0h-0.064l0,0h-0.072l0,0h-0.072l0,0h-0.072l0,0h-0.072l0,0h-0.152   l0,0c-6.104-1.104-12.296-1.928-18.576-2.472L273.4,56.648z" fill="#999999"/></g><g transform="matrix(0.026310950283029936 0.013155475632523981 -0.013155475632523981 0.026310950283029936 180.1711259153054 94.51427139332009)" id="L1_28"><path d="m373.902344 359.804688c77.382812-84.890626 74.359375-215.617188-6.863282-296.839844-81.222656-81.222656-211.945312-84.246094-296.835937-6.863282zm0 0"/><path d="m56.101562 70.203125c-77.382812 84.890625-74.359374 215.613281 6.863282 296.835937 81.222656 81.222657 211.949218 84.246094 296.839844 6.863282zm0 0"/></g></defs><g fi:class="KUsePattern"><pattern id="pattern_L1_3" width="350" height="350" patternUnits="userSpaceOnUse"><use xlink:href="#L1_3" x="-350" y="-350"/><use xlink:href="#L1_3" x="0" y="-350"/><use xlink:href="#L1_3" x="350" y="-350"/><use xlink:href="#L1_3" x="-350" y="0"/><use xlink:href="#L1_3" x="0" y="0"/><use xlink:href="#L1_3" x="350" y="0"/><use xlink:href="#L1_3" x="-350" y="350"/><use xlink:href="#L1_3" x="0" y="350"/><use xlink:href="#L1_3" x="350" y="350"/></pattern><rect x="0" y="0" width="100%" height="100%" fill="url(#pattern_L1_3)"/></g><g fi:class="KUsePattern"><pattern id="pattern_L1_4" width="350" height="350" patternUnits="userSpaceOnUse"><use xlink:href="#L1_4" x="-350" y="-350"/><use xlink:href="#L1_4" x="0" y="-350"/><use xlink:href="#L1_4" x="350" y="-350"/><use xlink:href="#L1_4" x="-350" y="0"/><use xlink:href="#L1_4" x="0" y="0"/><use xlink:href="#L1_4" x="350" y="0"/><use xlink:href="#L1_4" x="-350" y="350"/><use xlink:href="#L1_4" x="0" y="350"/><use xlink:href="#L1_4" x="350" y="350"/></pattern><rect x="0" y="0" width="100%" height="100%" fill="url(#pattern_L1_4)"/></g><g fi:class="KUsePattern"><pattern id="pattern_L1_5" width="350" height="350" patternUnits="userSpaceOnUse"><use xlink:href="#L1_5" x="-350" y="-350"/><use xlink:href="#L1_5" x="0" y="-350"/><use xlink:href="#L1_5" x="350" y="-350"/><use xlink:href="#L1_5" x="-350" y="0"/><use xlink:href="#L1_5" x="0" y="0"/><use xlink:href="#L1_5" x="350" y="0"/><use xlink:href="#L1_5" x="-350" y="350"/><use xlink:href="#L1_5" x="0" y="350"/><use xlink:href="#L1_5" x="350" y="350"/></pattern><rect x="0" y="0" width="100%" height="100%" fill="url(#pattern_L1_5)"/></g><g fi:class="KUsePattern"><pattern id="pattern_L1_6" width="350" height="350" patternUnits="userSpaceOnUse"><use xlink:href="#L1_6" x="-350" y="-350"/><use xlink:href="#L1_6" x="0" y="-350"/><use xlink:href="#L1_6" x="350" y="-350"/><use xlink:href="#L1_6" x="-350" y="0"/><use xlink:href="#L1_6" x="0" y="0"/><use xlink:href="#L1_6" x="350" y="0"/><use xlink:href="#L1_6" x="-350" y="350"/><use xlink:href="#L1_6" x="0" y="350"/><use xlink:href="#L1_6" x="350" y="350"/></pattern><rect x="0" y="0" width="100%" height="100%" fill="url(#pattern_L1_6)"/></g><g fi:class="KUsePattern"><pattern id="pattern_L1_7" width="350" height="350" patternUnits="userSpaceOnUse"><use xlink:href="#L1_7" x="-350" y="-350"/><use xlink:href="#L1_7" x="0" y="-350"/><use xlink:href="#L1_7" x="350" y="-350"/><use xlink:href="#L1_7" x="-350" y="0"/><use xlink:href="#L1_7" x="0" y="0"/><use xlink:href="#L1_7" x="350" y="0"/><use xlink:href="#L1_7" x="-350" y="350"/><use xlink:href="#L1_7" x="0" y="350"/><use xlink:href="#L1_7" x="350" y="350"/></pattern><rect x="0" y="0" width="100%" height="100%" fill="url(#pattern_L1_7)"/></g><g fi:class="KUsePattern"><pattern id="pattern_L1_9" width="350" height="350" patternUnits="userSpaceOnUse"><use xlink:href="#L1_9" x="-350" y="-350"/><use xlink:href="#L1_9" x="0" y="-350"/><use xlink:href="#L1_9" x="350" y="-350"/><use xlink:href="#L1_9" x="-350" y="0"/><use xlink:href="#L1_9" x="0" y="0"/><use xlink:href="#L1_9" x="350" y="0"/><use xlink:href="#L1_9" x="-350" y="350"/><use xlink:href="#L1_9" x="0" y="350"/><use xlink:href="#L1_9" x="350" y="350"/></pattern><rect x="0" y="0" width="100%" height="100%" fill="url(#pattern_L1_9)"/></g><g fi:class="KUsePattern"><pattern id="pattern_L1_11" width="350" height="350" patternUnits="userSpaceOnUse"><use xlink:href="#L1_11" x="-350" y="-350"/><use xlink:href="#L1_11" x="0" y="-350"/><use xlink:href="#L1_11" x="350" y="-350"/><use xlink:href="#L1_11" x="-350" y="0"/><use xlink:href="#L1_11" x="0" y="0"/><use xlink:href="#L1_11" x="350" y="0"/><use xlink:href="#L1_11" x="-350" y="350"/><use xlink:href="#L1_11" x="0" y="350"/><use xlink:href="#L1_11" x="350" y="350"/></pattern><rect x="0" y="0" width="100%" height="100%" fill="url(#pattern_L1_11)"/></g><g fi:class="KUsePattern"><pattern id="pattern_L1_12" width="350" height="350" patternUnits="userSpaceOnUse"><use xlink:href="#L1_12" x="-350" y="-350"/><use xlink:href="#L1_12" x="0" y="-350"/><use xlink:href="#L1_12" x="350" y="-350"/><use xlink:href="#L1_12" x="-350" y="0"/><use xlink:href="#L1_12" x="0" y="0"/><use xlink:href="#L1_12" x="350" y="0"/><use xlink:href="#L1_12" x="-350" y="350"/><use xlink:href="#L1_12" x="0" y="350"/><use xlink:href="#L1_12" x="350" y="350"/></pattern><rect x="0" y="0" width="100%" height="100%" fill="url(#pattern_L1_12)"/></g><g fi:class="KUsePattern"><pattern id="pattern_L1_13" width="350" height="350" patternUnits="userSpaceOnUse"><use xlink:href="#L1_13" x="-350" y="-350"/><use xlink:href="#L1_13" x="0" y="-350"/><use xlink:href="#L1_13" x="350" y="-350"/><use xlink:href="#L1_13" x="-350" y="0"/><use xlink:href="#L1_13" x="0" y="0"/><use xlink:href="#L1_13" x="350" y="0"/><use xlink:href="#L1_13" x="-350" y="350"/><use xlink:href="#L1_13" x="0" y="350"/><use xlink:href="#L1_13" x="350" y="350"/></pattern><rect x="0" y="0" width="100%" height="100%" fill="url(#pattern_L1_13)"/></g><g fi:class="KUsePattern"><pattern id="pattern_L1_15" width="350" height="350" patternUnits="userSpaceOnUse"><use xlink:href="#L1_15" x="-350" y="-350"/><use xlink:href="#L1_15" x="0" y="-350"/><use xlink:href="#L1_15" x="350" y="-350"/><use xlink:href="#L1_15" x="-350" y="0"/><use xlink:href="#L1_15" x="0" y="0"/><use xlink:href="#L1_15" x="350" y="0"/><use xlink:href="#L1_15" x="-350" y="350"/><use xlink:href="#L1_15" x="0" y="350"/><use xlink:href="#L1_15" x="350" y="350"/></pattern><rect x="0" y="0" width="100%" height="100%" fill="url(#pattern_L1_15)"/></g><g fi:class="KUsePattern"><pattern id="pattern_L1_16" width="350" height="350" patternUnits="userSpaceOnUse"><use xlink:href="#L1_16" x="-350" y="-350"/><use xlink:href="#L1_16" x="0" y="-350"/><use xlink:href="#L1_16" x="350" y="-350"/><use xlink:href="#L1_16" x="-350" y="0"/><use xlink:href="#L1_16" x="0" y="0"/><use xlink:href="#L1_16" x="350" y="0"/><use xlink:href="#L1_16" x="-350" y="350"/><use xlink:href="#L1_16" x="0" y="350"/><use xlink:href="#L1_16" x="350" y="350"/></pattern><rect x="0" y="0" width="100%" height="100%" fill="url(#pattern_L1_16)"/></g><g fi:class="KUsePattern"><pattern id="pattern_L1_18" width="350" height="350" patternUnits="userSpaceOnUse"><use xlink:href="#L1_18" x="-350" y="-350"/><use xlink:href="#L1_18" x="0" y="-350"/><use xlink:href="#L1_18" x="350" y="-350"/><use xlink:href="#L1_18" x="-350" y="0"/><use xlink:href="#L1_18" x="0" y="0"/><use xlink:href="#L1_18" x="350" y="0"/><use xlink:href="#L1_18" x="-350" y="350"/><use xlink:href="#L1_18" x="0" y="350"/><use xlink:href="#L1_18" x="350" y="350"/></pattern><rect x="0" y="0" width="100%" height="100%" fill="url(#pattern_L1_18)"/></g><g fi:class="KUsePattern"><pattern id="pattern_L1_19" width="350" height="350" patternUnits="userSpaceOnUse"><use xlink:href="#L1_19" x="-350" y="-350"/><use xlink:href="#L1_19" x="0" y="-350"/><use xlink:href="#L1_19" x="350" y="-350"/><use xlink:href="#L1_19" x="-350" y="0"/><use xlink:href="#L1_19" x="0" y="0"/><use xlink:href="#L1_19" x="350" y="0"/><use xlink:href="#L1_19" x="-350" y="350"/><use xlink:href="#L1_19" x="0" y="350"/><use xlink:href="#L1_19" x="350" y="350"/></pattern><rect x="0" y="0" width="100%" height="100%" fill="url(#pattern_L1_19)"/></g><g fi:class="KUsePattern"><pattern id="pattern_L1_20" width="350" height="350" patternUnits="userSpaceOnUse"><use xlink:href="#L1_20" x="-350" y="-350"/><use xlink:href="#L1_20" x="0" y="-350"/><use xlink:href="#L1_20" x="350" y="-350"/><use xlink:href="#L1_20" x="-350" y="0"/><use xlink:href="#L1_20" x="0" y="0"/><use xlink:href="#L1_20" x="350" y="0"/><use xlink:href="#L1_20" x="-350" y="350"/><use xlink:href="#L1_20" x="0" y="350"/><use xlink:href="#L1_20" x="350" y="350"/></pattern><rect x="0" y="0" width="100%" height="100%" fill="url(#pattern_L1_20)"/></g><g fi:class="KUsePattern"><pattern id="pattern_L1_21" width="350" height="350" patternUnits="userSpaceOnUse"><use xlink:href="#L1_21" x="-350" y="-350"/><use xlink:href="#L1_21" x="0" y="-350"/><use xlink:href="#L1_21" x="350" y="-350"/><use xlink:href="#L1_21" x="-350" y="0"/><use xlink:href="#L1_21" x="0" y="0"/><use xlink:href="#L1_21" x="350" y="0"/><use xlink:href="#L1_21" x="-350" y="350"/><use xlink:href="#L1_21" x="0" y="350"/><use xlink:href="#L1_21" x="350" y="350"/></pattern><rect x="0" y="0" width="100%" height="100%" fill="url(#pattern_L1_21)"/></g><g fi:class="KUsePattern"><pattern id="pattern_L1_22" width="350" height="350" patternUnits="userSpaceOnUse"><use xlink:href="#L1_22" x="-350" y="-350"/><use xlink:href="#L1_22" x="0" y="-350"/><use xlink:href="#L1_22" x="350" y="-350"/><use xlink:href="#L1_22" x="-350" y="0"/><use xlink:href="#L1_22" x="0" y="0"/><use xlink:href="#L1_22" x="350" y="0"/><use xlink:href="#L1_22" x="-350" y="350"/><use xlink:href="#L1_22" x="0" y="350"/><use xlink:href="#L1_22" x="350" y="350"/></pattern><rect x="0" y="0" width="100%" height="100%" fill="url(#pattern_L1_22)"/></g><g fi:class="KUsePattern"><pattern id="pattern_L1_24" width="350" height="350" patternUnits="userSpaceOnUse"><use xlink:href="#L1_24" x="-350" y="-350"/><use xlink:href="#L1_24" x="0" y="-350"/><use xlink:href="#L1_24" x="350" y="-350"/><use xlink:href="#L1_24" x="-350" y="0"/><use xlink:href="#L1_24" x="0" y="0"/><use xlink:href="#L1_24" x="350" y="0"/><use xlink:href="#L1_24" x="-350" y="350"/><use xlink:href="#L1_24" x="0" y="350"/><use xlink:href="#L1_24" x="350" y="350"/></pattern><rect x="0" y="0" width="100%" height="100%" fill="url(#pattern_L1_24)"/></g><g fi:class="KUsePattern"><pattern id="pattern_L1_25" width="350" height="350" patternUnits="userSpaceOnUse"><use xlink:href="#L1_25" x="-350" y="-350"/><use xlink:href="#L1_25" x="0" y="-350"/><use xlink:href="#L1_25" x="350" y="-350"/><use xlink:href="#L1_25" x="-350" y="0"/><use xlink:href="#L1_25" x="0" y="0"/><use xlink:href="#L1_25" x="350" y="0"/><use xlink:href="#L1_25" x="-350" y="350"/><use xlink:href="#L1_25" x="0" y="350"/><use xlink:href="#L1_25" x="350" y="350"/></pattern><rect x="0" y="0" width="100%" height="100%" fill="url(#pattern_L1_25)"/></g><g fi:class="KUsePattern"><pattern id="pattern_L1_26" width="350" height="350" patternUnits="userSpaceOnUse"><use xlink:href="#L1_26" x="-350" y="-350"/><use xlink:href="#L1_26" x="0" y="-350"/><use xlink:href="#L1_26" x="350" y="-350"/><use xlink:href="#L1_26" x="-350" y="0"/><use xlink:href="#L1_26" x="0" y="0"/><use xlink:href="#L1_26" x="350" y="0"/><use xlink:href="#L1_26" x="-350" y="350"/><use xlink:href="#L1_26" x="0" y="350"/><use xlink:href="#L1_26" x="350" y="350"/></pattern><rect x="0" y="0" width="100%" height="100%" fill="url(#pattern_L1_26)"/></g><g fi:class="KUsePattern"><pattern id="pattern_L1_27" width="350" height="350" patternUnits="userSpaceOnUse"><use xlink:href="#L1_27" x="-350" y="-350"/><use xlink:href="#L1_27" x="0" y="-350"/><use xlink:href="#L1_27" x="350" y="-350"/><use xlink:href="#L1_27" x="-350" y="0"/><use xlink:href="#L1_27" x="0" y="0"/><use xlink:href="#L1_27" x="350" y="0"/><use xlink:href="#L1_27" x="-350" y="350"/><use xlink:href="#L1_27" x="0" y="350"/><use xlink:href="#L1_27" x="350" y="350"/></pattern><rect x="0" y="0" width="100%" height="100%" fill="url(#pattern_L1_27)"/></g><g fi:class="KUsePattern"><pattern id="pattern_L1_28" width="350" height="350" patternUnits="userSpaceOnUse"><use xlink:href="#L1_28" x="-350" y="-350"/><use xlink:href="#L1_28" x="0" y="-350"/><use xlink:href="#L1_28" x="350" y="-350"/><use xlink:href="#L1_28" x="-350" y="0"/><use xlink:href="#L1_28" x="0" y="0"/><use xlink:href="#L1_28" x="350" y="0"/><use xlink:href="#L1_28" x="-350" y="350"/><use xlink:href="#L1_28" x="0" y="350"/><use xlink:href="#L1_28" x="350" y="350"/></pattern><rect x="0" y="0" width="100%" height="100%" fill="url(#pattern_L1_28)"/></g></svg>